<svg width="179" height="61" viewBox="0 0 179 61" fill="none" xmlns="http://www.w3.org/2000/svg">
<rect x="0.314147" y="0.314147" width="178.173" height="60.3717" rx="12.2517" fill="white"/>
<rect x="0.314147" y="0.314147" width="178.173" height="60.3717" rx="12.2517" stroke="#1B1C20" stroke-width="0.628294"/>
<path d="M49.1069 37.7055C48.3834 39.3108 48.0374 40.0268 47.1042 41.4459C45.8041 43.4262 43.9691 45.8944 41.6991 45.9153C39.6807 45.9337 39.1616 44.6013 36.4224 44.617C33.6831 44.6327 33.1117 45.939 31.0932 45.9206C28.8232 45.8996 27.0853 43.6727 25.7851 41.6898C22.1467 36.1501 21.7692 29.6478 24.0104 26.1934C25.6042 23.7357 28.118 22.2983 30.4825 22.2983C32.8888 22.2983 34.404 23.6203 36.3935 23.6203C38.3254 23.6203 39.5024 22.2983 42.2836 22.2983C44.3886 22.2983 46.6167 23.4446 48.2052 25.4275C43.0019 28.2787 43.8486 35.7173 49.1069 37.7055Z" fill="#1B1C20"/>
<path d="M40.1714 20.0863C41.1832 18.7879 41.9513 16.9519 41.6708 15.0791C40.0194 15.1919 38.0875 16.2437 36.9577 17.6155C35.9327 18.8614 35.0887 20.7053 35.4163 22.4994C37.2224 22.5545 39.0888 21.4765 40.1714 20.0863Z" fill="#1B1C20"/>
<path d="M58.9291 23.2746C60.0588 23.2746 61.0849 22.7674 61.4076 21.8451V23.1363H62.3184V19.551H59.1942V20.3349H61.4076C61.2808 21.58 60.4047 22.4331 59.0443 22.4331C57.4765 22.4331 56.4159 21.3148 56.4159 19.5164C56.4159 17.718 57.465 16.5882 58.9521 16.5882C60.4162 16.5882 61.2693 17.4644 61.35 18.7901L62.3069 18.7325C62.18 16.8764 60.9926 15.7351 58.9406 15.7351C56.9347 15.7351 55.3899 17.2684 55.3899 19.5049C55.3899 21.7644 56.877 23.2746 58.9291 23.2746Z" fill="#1B1C20"/>
<path d="M67.4425 21.3494C67.2349 22.1218 66.7392 22.5253 65.8977 22.5253C64.9984 22.5253 64.2952 21.8336 64.2491 20.8537H68.261V20.4732C68.261 19.1014 67.4425 17.9601 65.84 17.9601C64.3874 17.9601 63.2923 19.1014 63.2923 20.6923C63.2923 22.2601 64.3874 23.2746 65.8861 23.2746C67.1427 23.2746 67.9843 22.5829 68.2379 21.4416L67.4425 21.3494ZM64.2722 20.2312C64.3874 19.4011 64.9293 18.6864 65.84 18.6864C66.7969 18.6864 67.2465 19.4242 67.2811 20.2312H64.2722Z" fill="#1B1C20"/>
<path d="M69.4283 21.9604C69.4283 22.9403 69.9355 23.2746 70.6503 23.2746C71.2037 23.2746 71.5726 23.1248 71.9415 22.8481V22.2025C71.6533 22.3639 71.3189 22.5022 70.9961 22.5022C70.5581 22.5022 70.3736 22.2947 70.3736 21.8451V18.7901H71.7916V18.0984H70.3736V16.7035H69.8318L69.6819 17.4067C69.5666 17.8909 69.4629 18.1215 68.9902 18.2137L68.6674 18.2713V18.7901H69.4283V21.9604Z" fill="#1B1C20"/>
<path d="M74.8507 18.0984V23.1363H75.8075V18.0984H74.8507ZM74.8276 16.9571H75.819V15.8734H74.8276V16.9571Z" fill="#1B1C20"/>
<path d="M77.2865 21.9604C77.2865 22.9403 77.7937 23.2746 78.5085 23.2746C79.0618 23.2746 79.4307 23.1248 79.7996 22.8481V22.2025C79.5114 22.3639 79.1771 22.5022 78.8543 22.5022C78.4162 22.5022 78.2318 22.2947 78.2318 21.8451V18.7901H79.6498V18.0984H78.2318V16.7035H77.69L77.5401 17.4067C77.4248 17.8909 77.3211 18.1215 76.8484 18.2137L76.5256 18.2713V18.7901H77.2865V21.9604Z" fill="#1B1C20"/>
<path d="M83.3659 20.6231C83.3659 19.4933 83.9308 18.7094 84.9453 18.7094C85.9713 18.7094 86.5478 19.4933 86.5478 20.6231C86.5478 21.7414 85.9713 22.5368 84.9453 22.5368C83.9308 22.5368 83.3659 21.7414 83.3659 20.6231ZM87.5277 20.6231C87.5277 19.0553 86.4325 17.9601 84.9453 17.9601C83.4697 17.9601 82.386 19.0553 82.386 20.6231C82.386 22.191 83.4697 23.2746 84.9453 23.2746C86.4325 23.2746 87.5277 22.191 87.5277 20.6231Z" fill="#1B1C20"/>
<path d="M89.4749 20.2427C89.4749 19.3204 90.0743 18.7209 90.8352 18.7209C91.6307 18.7209 92.0342 19.2512 92.0342 20.0928V23.1363H92.991V20.0121C92.991 18.8362 92.4607 17.9601 91.1465 17.9601C90.3971 17.9601 89.717 18.3866 89.4749 18.9976V18.0984H88.518V23.1363H89.4749V20.2427Z" fill="#1B1C20"/>
<path d="M61.2977 26.6973L55.3899 41.4669H58.9533L60.1958 38.2786H66.1506L67.4165 41.4669H71.2144L65.2597 26.6973H61.2977ZM63.1263 30.7531H63.2201L65.119 35.606H61.2274L63.1263 30.7531Z" fill="#1B1C20"/>
<path d="M75.7317 36.1452C75.7317 34.4807 76.6929 33.4257 78.0996 33.4257C79.6937 33.4257 80.4674 34.5745 80.4674 36.2624C80.4674 37.9738 79.6937 39.1226 78.0996 39.1226C76.6929 39.1226 75.7317 38.0676 75.7317 36.3796V36.1452ZM75.7317 39.6149C76.2475 40.8339 77.4431 41.7483 79.2483 41.7483C82.296 41.7483 83.8902 39.3335 83.8902 36.2624C83.8902 33.2147 82.296 30.7766 79.2483 30.7766C77.4431 30.7766 76.2475 31.6909 75.7317 32.9334V31.0579H72.3558V45.2648H75.7317V39.6149Z" fill="#1B1C20"/>
<path d="M88.8731 36.1452C88.8731 34.4807 89.8343 33.4257 91.2409 33.4257C92.8351 33.4257 93.6087 34.5745 93.6087 36.2624C93.6087 37.9738 92.8351 39.1226 91.2409 39.1226C89.8343 39.1226 88.8731 38.0676 88.8731 36.3796V36.1452ZM88.8731 39.6149C89.3889 40.8339 90.5845 41.7483 92.3897 41.7483C95.4373 41.7483 97.0315 39.3335 97.0315 36.2624C97.0315 33.2147 95.4373 30.7766 92.3897 30.7766C90.5845 30.7766 89.3889 31.6909 88.8731 32.9334V31.0579H85.4972V45.2648H88.8731V39.6149Z" fill="#1B1C20"/>
<path d="M102.218 36.2155C102.218 39.8024 105.031 41.7483 108.97 41.7483C112.346 41.7483 114.995 40.1775 114.995 37.1298C114.995 34.7151 113.612 33.2147 110.588 32.6755L107.821 32.1832C106.743 31.9722 106.086 31.6674 106.086 30.8234C106.086 29.8154 106.93 29.2058 108.431 29.2058C110.142 29.2058 111.338 30.0498 111.432 31.7846L114.714 31.6909C114.643 28.4087 112.463 26.416 108.454 26.416C104.867 26.416 102.593 28.2212 102.593 31.1282C102.593 33.6367 104.258 34.9496 106.602 35.395L109.368 35.8873C110.658 36.1452 111.525 36.3796 111.525 37.3643C111.525 38.3489 110.541 38.9584 108.97 38.9584C107.141 38.9584 105.617 38.1379 105.477 36.0983L102.218 36.2155Z" fill="#1B1C20"/>
<path d="M117.192 38.6771C117.192 41.0215 118.716 41.7483 120.404 41.7483C121.763 41.7483 122.654 41.42 123.428 40.8339V38.6068C122.795 38.8881 122.256 39.0288 121.74 39.0288C120.943 39.0288 120.521 38.6537 120.521 37.7628V33.4257H123.287V31.0579H120.521V28.1743H118.434L118.083 29.5575C117.825 30.5187 117.52 31.0579 116.488 31.2454L115.738 31.3627V33.4257H117.192V38.6771Z" fill="#1B1C20"/>
<path d="M127.758 36.2624C127.758 34.5276 128.438 33.3319 129.938 33.3319C131.415 33.3319 132.142 34.5276 132.142 36.2624C132.142 37.9972 131.415 39.1929 129.938 39.1929C128.438 39.1929 127.758 37.9972 127.758 36.2624ZM135.565 36.2624C135.565 33.0506 133.267 30.7766 129.938 30.7766C126.609 30.7766 124.335 33.0506 124.335 36.2624C124.335 39.4977 126.609 41.7483 129.938 41.7483C133.267 41.7483 135.565 39.4977 135.565 36.2624Z" fill="#1B1C20"/>
<path d="M144.906 31.1985C144.624 30.9641 144.085 30.7766 143.452 30.7766C142.045 30.7766 140.967 31.7846 140.568 32.9568V31.0579H137.193V41.4669H140.568V36.5437C140.568 34.7386 141.506 33.9415 142.913 33.9415C143.64 33.9415 144.155 34.0587 144.695 34.3635L144.906 31.1985Z" fill="#1B1C20"/>
<path d="M153.393 37.7863C153.018 38.7474 152.291 39.1929 151.119 39.1929C149.806 39.1929 148.775 38.3958 148.681 37.0126H156.183V35.9811C156.183 33.1444 154.378 30.7766 150.932 30.7766C147.743 30.7766 145.352 33.1444 145.352 36.4265C145.352 39.7321 147.696 41.7483 151.002 41.7483C153.722 41.7483 155.574 40.412 156.113 38.0441L153.393 37.7863ZM148.728 35.2074C148.916 34.1056 149.549 33.2382 150.908 33.2382C152.198 33.2382 152.854 34.1759 152.924 35.2074H148.728Z" fill="#1B1C20"/>
</svg>
