<svg width="179" height="61" viewBox="0 0 179 61" fill="none" xmlns="http://www.w3.org/2000/svg">
<rect x="0.508971" y="0.314147" width="177.784" height="60.3664" rx="12.2517" fill="white"/>
<rect x="0.508971" y="0.314147" width="177.784" height="60.3664" rx="12.2517" stroke="#1B1C20" stroke-width="0.628294"/>
<path d="M15.2739 15.1912V30.4978V45.8044L30.7006 30.4978L15.2739 15.1912Z" fill="url(#paint0_linear_2_1082)"/>
<path d="M34.8455 26.3868L28.616 22.7905L15.2739 15.0791V15.1926L30.7006 30.4992L34.8455 26.3868Z" fill="url(#paint1_linear_2_1082)"/>
<path d="M15.2739 45.8049V45.9157L28.616 38.207L34.8428 34.608L30.7006 30.4983L15.2739 45.8049Z" fill="url(#paint2_linear_2_1082)"/>
<path d="M34.8424 26.3853L30.6975 30.4976L34.8397 34.6073L41.9577 30.4976L34.8424 26.3853Z" fill="url(#paint3_linear_2_1082)"/>
<path d="M51.7798 23.2719C52.9096 23.2719 53.9356 22.7647 54.2584 21.8424V23.1336H55.1691V19.5483H52.0449V20.3322H54.2584C54.1316 21.5773 53.2554 22.4304 51.8951 22.4304C50.3272 22.4304 49.2666 21.3121 49.2666 19.5137C49.2666 17.7153 50.3157 16.5855 51.8029 16.5855C53.2669 16.5855 54.12 17.4617 54.2007 18.7874L55.1576 18.7298C55.0308 16.8737 53.8434 15.7324 51.7913 15.7324C49.7854 15.7324 48.2406 17.2657 48.2406 19.5022C48.2406 21.7617 49.7278 23.2719 51.7798 23.2719Z" fill="#1B1C20"/>
<path d="M60.2932 21.3467C60.0857 22.1191 59.59 22.5226 58.7484 22.5226C57.8492 22.5226 57.146 21.8309 57.0998 20.851H61.1117V20.4706C61.1117 19.0987 60.2932 17.9574 58.6908 17.9574C57.2382 17.9574 56.143 19.0987 56.143 20.6896C56.143 22.2575 57.2382 23.2719 58.7369 23.2719C59.9935 23.2719 60.835 22.5802 61.0886 21.4389L60.2932 21.3467ZM57.1229 20.2285C57.2382 19.3984 57.78 18.6837 58.6908 18.6837C59.6476 18.6837 60.0972 19.4215 60.1318 20.2285H57.1229Z" fill="#1B1C20"/>
<path d="M62.279 21.9577C62.279 22.9376 62.7863 23.2719 63.501 23.2719C64.0544 23.2719 64.4233 23.1221 64.7922 22.8454V22.1998C64.504 22.3612 64.1697 22.4995 63.8469 22.4995C63.4088 22.4995 63.2244 22.292 63.2244 21.8424V18.7874H64.6423V18.0957H63.2244V16.7008H62.6825L62.5327 17.404C62.4174 17.8882 62.3136 18.1188 61.841 18.211L61.5182 18.2687V18.7874H62.279V21.9577Z" fill="#1B1C20"/>
<path d="M67.7014 18.0957V23.1336H68.6582V18.0957H67.7014ZM67.6783 16.9544H68.6698V15.8708H67.6783V16.9544Z" fill="#1B1C20"/>
<path d="M70.1372 21.9577C70.1372 22.9376 70.6445 23.2719 71.3592 23.2719C71.9126 23.2719 72.2815 23.1221 72.6504 22.8454V22.1998C72.3622 22.3612 72.0279 22.4995 71.7051 22.4995C71.267 22.4995 71.0825 22.292 71.0825 21.8424V18.7874H72.5005V18.0957H71.0825V16.7008H70.5407L70.3908 17.404C70.2755 17.8882 70.1718 18.1188 69.6991 18.211L69.3763 18.2687V18.7874H70.1372V21.9577Z" fill="#1B1C20"/>
<path d="M76.2167 20.6204C76.2167 19.4907 76.7816 18.7067 77.7961 18.7067C78.8221 18.7067 79.3985 19.4907 79.3985 20.6204C79.3985 21.7387 78.8221 22.5341 77.7961 22.5341C76.7816 22.5341 76.2167 21.7387 76.2167 20.6204ZM80.3784 20.6204C80.3784 19.0526 79.2832 17.9574 77.7961 17.9574C76.3204 17.9574 75.2368 19.0526 75.2368 20.6204C75.2368 22.1883 76.3204 23.2719 77.7961 23.2719C79.2832 23.2719 80.3784 22.1883 80.3784 20.6204Z" fill="#1B1C20"/>
<path d="M82.3256 20.24C82.3256 19.3177 82.9251 18.7183 83.686 18.7183C84.4814 18.7183 84.8849 19.2486 84.8849 20.0901V23.1336H85.8418V20.0094C85.8418 18.8335 85.3115 17.9574 83.9972 17.9574C83.2479 17.9574 82.5677 18.3839 82.3256 18.9949V18.0957H81.3688V23.1336H82.3256V20.24Z" fill="#1B1C20"/>
<path d="M55.3089 41.5201C57.2492 41.5201 58.9124 40.8733 59.6977 39.4181V41.2429H62.7699V33.7819H55.9788V36.3228H59.4667C58.9585 37.755 57.5957 38.5634 56.0019 38.5634C53.3455 38.5634 51.844 36.7386 51.844 33.9667C51.844 31.2641 53.2993 29.5086 55.7247 29.5086C57.8267 29.5086 59.074 30.6866 59.2588 32.5115L62.6775 32.396C62.3541 28.7232 59.8825 26.4133 55.6554 26.4133C51.4976 26.4133 48.2406 29.4855 48.2406 33.9667C48.2406 38.471 51.2666 41.5201 55.3089 41.5201Z" fill="#1B1C20"/>
<path d="M67.6961 36.1149C67.6961 34.4056 68.366 33.2275 69.8443 33.2275C71.2996 33.2275 72.0156 34.4056 72.0156 36.1149C72.0156 37.8242 71.2996 39.0023 69.8443 39.0023C68.366 39.0023 67.6961 37.8242 67.6961 36.1149ZM75.3881 36.1149C75.3881 32.9504 73.1244 30.7097 69.8443 30.7097C66.5643 30.7097 64.3237 32.9504 64.3237 36.1149C64.3237 39.3026 66.5643 41.5201 69.8443 41.5201C73.1244 41.5201 75.3881 39.3026 75.3881 36.1149Z" fill="#1B1C20"/>
<path d="M79.8547 36.1149C79.8547 34.4056 80.5246 33.2275 82.0029 33.2275C83.4581 33.2275 84.1742 34.4056 84.1742 36.1149C84.1742 37.8242 83.4581 39.0023 82.0029 39.0023C80.5246 39.0023 79.8547 37.8242 79.8547 36.1149ZM87.5467 36.1149C87.5467 32.9504 85.283 30.7097 82.0029 30.7097C78.7228 30.7097 76.4822 32.9504 76.4822 36.1149C76.4822 39.3026 78.7228 41.5201 82.0029 41.5201C85.283 41.5201 87.5467 39.3026 87.5467 36.1149Z" fill="#1B1C20"/>
<path d="M98.575 34.2208C98.575 33.6895 98.4364 33.2275 98.2054 32.8118C98.7136 32.6732 99.3142 32.6039 99.7993 32.6039V30.0399C98.6905 30.0399 97.6048 30.7328 97.0043 31.5644C96.1496 31.01 94.9716 30.7097 93.7242 30.7097C90.9061 30.7097 88.8965 32.0495 88.8965 34.2208C88.8965 35.3296 89.4278 36.2304 90.3517 36.831C89.2892 37.2237 88.6424 37.9859 88.6424 38.933C88.6424 39.8108 89.1737 40.5961 90.0977 40.8964C88.9196 41.0119 88.1111 41.7511 88.1111 42.6981C88.1111 44.6154 90.5827 45.2621 93.4701 45.2621C96.7502 45.2621 99.7993 44.1303 99.7993 41.5663C99.7993 39.8801 98.6212 38.6558 96.3344 38.6558H92.1304C91.4605 38.6558 91.1833 38.3555 91.1833 37.9628C91.1833 37.7088 91.2988 37.524 91.4605 37.3854C92.1304 37.5933 92.8926 37.7088 93.7242 37.7088C96.5423 37.7088 98.575 36.369 98.575 34.2208ZM90.9523 42.3055C90.9523 41.7742 91.3681 41.5201 91.8994 41.5201H95.5259C96.2882 41.5201 96.704 41.7049 96.704 42.2593C96.704 43.0215 95.3411 43.4142 93.4932 43.4142C91.9918 43.4142 90.9523 43.1139 90.9523 42.3055ZM95.1332 34.2208C95.1332 35.2603 94.5558 35.8608 93.7473 35.8608C92.9619 35.8608 92.3845 35.2603 92.3845 34.2208C92.3845 33.2044 92.9619 32.627 93.7473 32.627C94.5558 32.627 95.1332 33.2044 95.1332 34.2208Z" fill="#1B1C20"/>
<path d="M100.903 26.6905V41.2429H104.229V26.6905H100.903Z" fill="#1B1C20"/>
<path d="M113.753 37.6164C113.383 38.5634 112.667 39.0023 111.512 39.0023C110.219 39.0023 109.202 38.2169 109.11 36.8541H116.501V35.8377C116.501 33.0428 114.723 30.7097 111.327 30.7097C108.186 30.7097 105.83 33.0428 105.83 36.2766C105.83 39.5336 108.14 41.5201 111.397 41.5201C114.076 41.5201 115.901 40.2034 116.432 37.8704L113.753 37.6164ZM109.156 35.0755C109.341 33.9898 109.964 33.1351 111.304 33.1351C112.575 33.1351 113.221 34.0591 113.291 35.0755H109.156Z" fill="#1B1C20"/>
<path d="M125.868 33.6895V29.5086H128.386C130.303 29.5086 131.089 30.2478 131.089 31.6106C131.089 32.9735 130.303 33.6895 128.386 33.6895H125.868ZM125.868 36.5076H128.525C132.29 36.5076 134.484 34.729 134.484 31.5875C134.484 28.446 132.29 26.6905 128.525 26.6905H122.38V41.2429H125.868V36.5076Z" fill="#1B1C20"/>
<path d="M135.8 26.6905V41.2429H139.126V26.6905H135.8Z" fill="#1B1C20"/>
<path d="M147.333 36.9003C147.333 38.3555 146.363 39.2795 145.138 39.2795C144.422 39.2795 143.96 38.9099 143.96 38.3093C143.96 37.5009 144.607 37.2468 145.646 37.0389L147.333 36.6924V36.9003ZM150.613 34.7059C150.613 31.9109 148.696 30.7097 146.016 30.7097C143.082 30.7097 141.442 32.2343 141.096 34.4287L144.191 34.6597C144.376 33.805 144.861 33.2044 145.831 33.2044C146.848 33.2044 147.333 33.7819 147.333 34.7521V34.9369L144.468 35.445C142.205 35.8839 140.726 36.7155 140.726 38.6789C140.726 40.4344 142.02 41.4739 144.076 41.4739C145.67 41.4739 146.94 40.8502 147.518 39.6722C147.818 40.8271 148.719 41.4739 149.943 41.4739C150.959 41.4739 151.606 41.1736 152.114 40.804V39.0254C151.814 39.164 151.56 39.2102 151.26 39.2102C150.844 39.2102 150.613 38.9792 150.613 38.4479V34.7059Z" fill="#1B1C20"/>
<path d="M157.638 44.9849L163.528 30.9869H160.248L157.73 37.3854H157.638L155.166 30.9869H151.655L155.859 41.3353L154.358 44.9849H157.638Z" fill="#1B1C20"/>
<defs>
<linearGradient id="paint0_linear_2_1082" x1="22.9866" y1="15.1899" x2="22.9866" y2="45.8039" gradientUnits="userSpaceOnUse">
<stop stop-color="#257CB0"/>
<stop offset="0.2863" stop-color="#4A93B5"/>
<stop offset="0.767" stop-color="#78BCBB"/>
<stop offset="1" stop-color="#89CFBD"/>
</linearGradient>
<linearGradient id="paint1_linear_2_1082" x1="15.2728" y1="22.7892" x2="34.8443" y2="22.7892" gradientUnits="userSpaceOnUse">
<stop stop-color="#52C1AD"/>
<stop offset="1" stop-color="#DEE89A"/>
</linearGradient>
<linearGradient id="paint2_linear_2_1082" x1="25.0584" y1="30.4976" x2="25.0584" y2="45.9157" gradientUnits="userSpaceOnUse">
<stop stop-color="#EC413D"/>
<stop offset="0.1668" stop-color="#DA4452"/>
<stop offset="0.5748" stop-color="#B0487A"/>
<stop offset="0.8619" stop-color="#954A92"/>
<stop offset="1" stop-color="#8A4A9D"/>
</linearGradient>
<linearGradient id="paint3_linear_2_1082" x1="36.3277" y1="26.3854" x2="36.3277" y2="34.608" gradientUnits="userSpaceOnUse">
<stop stop-color="#F58879"/>
<stop offset="0.1194" stop-color="#F69079"/>
<stop offset="0.7128" stop-color="#FCB877"/>
<stop offset="1" stop-color="#FEC874"/>
</linearGradient>
</defs>
</svg>
