<svg width="1438" height="1084" viewBox="0 0 1438 1084" fill="none" xmlns="http://www.w3.org/2000/svg">
<g style="mix-blend-mode:luminosity" opacity="0.1">
<mask id="mask0_68_164" style="mask-type:luminance" maskUnits="userSpaceOnUse" x="-38" y="6" width="1628" height="1092">
<path d="M1589.12 19.1895L-28.6522 6.22021L-37.2984 1084.74L1580.48 1097.71L1589.12 19.1895Z" fill="white"/>
</mask>
<g mask="url(#mask0_68_164)">
<path d="M-170.999 927.944C-109.133 778.786 56.5814 675.761 222.623 683.294C355.645 689.349 488.564 758.635 616.139 720.964C709.254 693.397 776.09 613.713 820.982 530.213C865.873 446.713 894.917 355.536 945.581 275.183C996.244 194.83 1075.82 123.338 1172.7 114.272C1254.6 106.705 1332.89 144.678 1404.17 184.079C1475.45 223.479 1548.98 266.538 1631.06 270.701" stroke="#283640" stroke-width="1.34819" stroke-miterlimit="10"/>
<path d="M-172.577 922.943C-134.795 834.936 -58.8732 765.572 28.5218 728.252C81.4179 705.756 138.403 694.618 197.451 695.092C204.866 695.151 212.279 695.48 219.691 695.809C281.142 699.403 343.044 713.921 403.761 724.924C473.634 737.483 542.6 745.317 610.706 726.044C684.349 705.467 742.29 659.148 787.66 600.054C800.604 583.17 812.343 565.198 823.005 546.948C843.24 511.921 860.256 474.711 876.733 437.498C899.115 386.849 920.691 335.924 949.787 288.699C953.475 282.662 957.298 276.76 961.391 270.726C996.317 219.369 1043.6 173.369 1099.62 148.606C1125.06 137.35 1152.08 130.555 1180.27 128.894C1233.01 125.946 1284.25 141.457 1333.7 162.212C1361.51 173.895 1388.51 187.054 1414.69 200.072C1437.79 211.583 1461.02 223.094 1484.53 233.394C1535.18 255.776 1586.95 273.044 1642.63 273.086" stroke="#263D47" stroke-width="1.34819" stroke-miterlimit="10"/>
<path d="M-174.29 917.94C-135.704 830.615 -57.2467 764.506 28.8928 732.435C80.9552 713.033 136.023 705.52 194.656 707.473C201.934 707.666 209.346 708.13 216.623 708.593C277.662 712.992 339.581 725.488 399.776 734.329C468.858 744.591 537.174 749.453 605.271 731.258C680.125 711.095 739.356 671.932 787.402 615.422C801.148 599.353 813.692 581.792 824.894 563.546C846.204 528.932 864.168 491.191 880.919 453.44C903.712 402.12 925.026 350.115 953.995 301.946C957.684 295.773 961.508 289.737 965.601 283.703C1000.54 231.267 1048.78 184.196 1105.99 160.656C1132.1 149.945 1159.38 144.096 1187.83 143.515C1240.96 142.323 1292.19 159.722 1342.45 180.348C1370.67 191.9 1398.48 204.391 1425.21 216.201C1448.86 226.637 1472.51 236.803 1496.16 245.756C1547.24 264.906 1598.91 278.533 1654.07 275.74" stroke="#24444F" stroke-width="1.34819" stroke-miterlimit="10"/>
<path d="M-175.868 912.939C-136.345 826.43 -55.6202 763.44 29.3997 736.483C80.7632 720.177 133.915 716.289 191.862 719.585C199.139 720.047 206.416 720.51 213.691 721.108C274.321 726.178 336.388 736.922 396.062 743.602C464.489 751.431 532.017 753.725 599.972 736.339C676.034 716.86 736.693 684.584 787.279 630.791C801.828 615.403 815.043 598.386 826.917 580.28C849.438 545.946 868.214 507.941 885.239 469.653C908.442 417.528 929.359 364.575 958.201 315.461C961.892 309.154 965.716 302.983 969.81 296.814C1004.75 243.3 1053.95 195.158 1112.5 172.842C1139.15 162.674 1166.82 157.908 1195.54 158.273C1248.92 158.97 1300.41 177.989 1351.47 198.487C1380.23 209.907 1408.59 221.595 1436.01 232.331C1460.06 241.692 1484.13 250.513 1508.2 257.987C1559.84 274.04 1611.27 283.89 1666.05 278.127" stroke="#224B56" stroke-width="1.34819" stroke-miterlimit="10"/>
<path d="M-177.579 907.802C-137.119 822.109 -53.9928 762.24 29.7716 740.531C80.4351 727.455 131.536 727.056 188.933 731.83C196.074 732.427 203.348 733.159 210.624 733.757C270.843 739.632 332.926 748.354 392.076 753.008C459.713 758.539 526.59 757.996 594.403 741.552C671.672 722.757 733.625 697.368 786.886 646.158C802.238 631.585 816.259 614.844 828.806 597.014C852.537 563.094 872.125 524.556 889.424 485.731C912.902 432.934 933.559 378.901 962.409 328.708C966.101 322.266 969.927 315.96 974.022 309.656C1008.97 255.063 1059.12 205.85 1118.88 184.623C1146.19 175 1174.13 171.179 1202.97 172.624C1256.61 175.076 1308.35 195.984 1360.23 216.219C1389.53 227.644 1418.56 238.528 1446.53 247.92C1471.14 256.342 1495.62 263.818 1519.84 269.81C1571.91 282.631 1623.23 288.705 1677.49 280.242" stroke="#20525D" stroke-width="1.34819" stroke-miterlimit="10"/>
<path d="M-179.292 902.8C-137.894 817.789 -52.5012 761.174 30.1436 744.579C80.1082 734.598 129.158 737.823 186.139 743.942C193.279 744.673 200.417 745.539 207.692 746.272C267.5 752.953 329.735 759.654 388.228 762.145C455.21 765.244 521.298 762.133 589.106 746.363C667.583 728.252 730.831 709.479 786.766 661.122C802.786 647.229 817.612 631.034 830.833 613.209C855.774 579.703 876.175 540.768 893.748 501.405C917.637 447.802 937.896 392.822 966.619 341.685C970.312 335.108 974.139 328.667 978.1 322.227C1013.06 266.556 1064.16 216.272 1125.26 196.269C1153.1 187.189 1181.44 184.45 1210.54 186.841C1264.57 191.184 1316.3 213.844 1368.99 233.816C1398.83 245.111 1428.41 255.325 1456.92 263.508C1481.94 270.854 1506.97 276.987 1531.34 281.497C1583.97 291.222 1635.05 293.519 1688.94 282.221" stroke="#1E5964" stroke-width="1.34819" stroke-miterlimit="10"/>
<path d="M-180.87 897.799C-138.534 813.604 -50.7389 759.974 30.5145 748.761C79.7791 742.011 126.913 748.725 183.21 756.187C190.212 757.187 197.351 758.053 204.625 758.921C264.023 766.273 326.272 771.086 384.243 771.551C450.569 772.352 516.006 766.405 583.537 751.577C663.222 734.149 727.763 722.263 786.507 676.624C803.33 663.547 818.827 647.627 832.72 630.076C858.736 596.984 880.085 557.517 897.932 517.617C922.231 463.344 942.095 407.282 970.825 355.201C974.519 348.489 978.347 341.913 982.309 335.474C1017.28 278.724 1069.33 227.369 1131.63 208.589C1160.15 200.054 1188.74 198.396 1217.97 201.731C1272.26 207.963 1324.24 232.244 1377.74 252.087C1408.12 263.386 1438.38 272.662 1467.44 279.771C1493.01 286.043 1518.32 290.965 1543.1 293.995C1596.3 300.488 1647.01 299.142 1700.51 285.01" stroke="#1D616C" stroke-width="1.34819" stroke-miterlimit="10"/>
<path d="M-182.582 892.797C-139.308 809.284 -49.2472 758.908 30.8866 752.809C79.3175 749.153 124.535 759.492 180.28 768.433C187.282 769.567 194.419 770.568 201.557 771.569C260.544 779.727 322.945 782.519 380.392 780.958C445.93 779.191 510.713 770.812 578.237 756.792C659.13 740.049 725.099 735.05 786.384 691.993C804.01 679.596 820.312 664.222 834.743 646.811C861.971 613.997 884.132 574.133 902.251 533.831C926.961 478.751 946.428 421.743 975.031 368.717C978.726 361.87 982.555 355.16 986.518 348.585C1021.5 290.757 1074.5 238.331 1138.14 220.775C1167.19 212.784 1196.18 212.072 1225.67 216.488C1280.21 224.611 1332.45 250.646 1386.76 270.361C1417.55 281.528 1448.49 290.135 1478.23 296.036C1504.35 301.369 1530.07 304.811 1555 306.359C1608.63 309.62 1659.23 304.498 1712.35 287.667" stroke="#1B6873" stroke-width="1.34819" stroke-miterlimit="10"/>
<path d="M-184.16 887.796C-139.949 805.099 -47.486 757.843 31.3923 756.992C79.1242 756.431 122.425 770.396 177.62 780.68C184.621 781.95 191.622 783.219 198.624 784.219C257.201 793.183 319.617 793.953 376.543 790.229C441.426 786.031 505.42 775.084 572.803 761.872C654.904 745.812 722.167 747.565 786.126 707.361C804.554 695.779 821.527 680.815 836.632 663.409C865.07 631.01 887.908 590.746 906.303 549.772C931.422 494.022 950.495 435.797 978.97 381.961C982.665 375.115 986.495 368.269 990.459 361.425C1025.58 302.519 1079.54 248.888 1144.25 232.688C1173.97 225.242 1203.22 225.611 1232.84 230.972C1287.63 240.983 1339.99 268.637 1395.11 288.224C1426.44 299.261 1457.92 307.064 1488.35 311.892C1514.88 316.149 1541.15 318.247 1566.23 318.313C1620.43 318.478 1670.79 309.579 1723.39 289.777" stroke="#196F7A" stroke-width="1.34819" stroke-miterlimit="10"/>
<path d="M-185.871 882.659C-140.858 800.778 -45.9934 756.642 31.7654 760.906C78.7973 763.575 120.048 781.028 174.693 792.656C181.557 794.194 188.557 795.464 195.559 796.599C253.725 806.233 316.157 805.115 372.56 799.366C436.787 792.87 499.995 779.085 567.236 766.816C650.544 751.575 719.235 760.08 785.735 722.458C804.967 711.557 822.611 697.003 838.523 679.873C868.036 647.887 891.822 607.091 910.49 565.715C936.02 509.159 954.696 449.987 983.178 395.207C986.874 388.226 990.57 381.245 994.671 374.267C1029.8 314.283 1084.71 259.58 1150.76 244.605C1181.01 237.702 1210.66 239.018 1240.54 245.46C1295.73 257.227 1348.2 286.77 1404.14 306.094C1436 317.135 1468.17 324.134 1499.01 327.752C1526.09 331.07 1552.64 331.822 1578.13 330.408C1632.76 327.341 1683.02 314.801 1735.1 292.164" stroke="#177682" stroke-width="1.34819" stroke-miterlimit="10"/>
<path d="M-187.449 877.658C-141.498 796.458 -44.3669 755.577 32.2723 764.954C78.6052 770.719 117.805 791.796 171.899 804.903C178.761 806.576 185.626 807.979 192.626 809.249C250.382 819.688 312.965 816.55 368.709 808.773C432.148 799.844 494.837 783.493 561.936 772.032C646.452 757.474 716.571 772.867 785.612 737.827C805.646 727.741 824.096 713.598 840.546 696.607C871.27 664.901 895.867 623.842 914.81 581.794C940.615 524.566 959.165 464.314 987.385 408.589C990.948 401.472 994.78 394.357 998.88 387.379C1034.02 326.316 1089.88 270.543 1157.13 256.791C1188.06 250.432 1217.97 252.829 1248.11 260.216C1303.55 273.874 1356.28 305.036 1413.02 324.231C1445.43 335.142 1478.14 341.471 1509.67 343.881C1537.16 346.124 1564.26 345.532 1589.9 342.637C1645.09 336.473 1695.11 320.156 1746.81 294.684" stroke="#157D89" stroke-width="1.34819" stroke-miterlimit="10"/>
<path d="M-189.162 872.655C-142.273 792.272 -42.7405 754.511 32.6432 769.137C78.2773 777.996 115.56 802.698 169.104 817.149C175.83 818.956 182.693 820.629 189.694 821.898C247.038 833.144 309.636 828.118 364.995 818.045C427.778 806.684 489.678 787.901 556.637 777.113C642.36 763.374 713.773 785.518 785.623 753.197C806.462 743.792 825.582 730.058 842.704 713.208C874.504 681.914 900.049 640.324 919.265 597.874C945.48 539.975 963.634 478.641 991.863 421.837C995.426 414.585 999.259 407.336 1003.36 400.223C1038.51 338.082 1095.32 281.237 1163.91 268.574C1195.37 262.76 1225.68 266.104 1255.95 274.57C1311.64 289.982 1364.5 323.033 1422.05 342.1C1454.99 352.88 1488.39 358.406 1520.46 359.742C1548.5 360.911 1576.01 359.109 1601.8 354.731C1657.56 345.336 1707.33 325.242 1758.52 297.07" stroke="#138490" stroke-width="1.34819" stroke-miterlimit="10"/>
<path d="M-190.74 867.654C-142.914 788.088 -41.1141 753.445 33.0152 773.185C77.8144 785.273 113.182 813.465 166.175 829.26C172.9 831.336 179.628 833.008 186.627 834.412C243.562 846.329 306.31 839.416 361.011 827.316C423.004 813.657 484.251 792.172 551.203 782.192C638.268 769.273 710.975 798.169 785.366 768.43C806.872 759.839 826.798 746.516 844.594 729.806C877.603 698.927 903.962 656.803 923.45 613.951C950.077 555.247 967.833 492.966 995.935 435.217C999.5 427.831 1003.33 420.446 1007.44 413.199C1042.59 349.979 1100.36 292.063 1170.15 280.624C1202.28 275.354 1232.85 279.778 1263.38 289.191C1319.33 306.492 1372.44 341.298 1430.8 360.102C1464.15 370.885 1498.22 375.608 1530.99 375.735C1559.57 375.965 1587.37 372.682 1613.57 366.825C1669.76 354.198 1719.43 330.463 1770.23 299.321" stroke="#118B97" stroke-width="1.34819" stroke-miterlimit="10"/>
<path d="M-192.451 862.517C-143.687 783.632 -39.4855 752.11 33.3872 777.232C77.4875 792.416 110.938 824.233 163.246 841.505C169.835 843.715 176.696 845.523 183.425 847.06C239.949 859.782 302.713 850.847 356.89 836.721C418.229 820.629 478.823 796.577 545.499 787.405C633.77 775.304 707.773 810.817 784.838 783.93C807.146 776.155 827.878 763.108 846.211 746.672C880.297 716.071 907.602 673.685 927.365 630.161C954.401 570.786 971.762 507.424 999.871 448.731C1003.44 441.21 1007.27 433.69 1011.24 426.307C1046.41 362.009 1105.12 303.022 1176.26 292.807C1208.92 288.08 1239.89 293.452 1270.54 303.944C1326.88 323.001 1379.98 359.559 1439.29 378.236C1473.18 388.889 1507.93 392.943 1541.1 391.86C1570.1 391.014 1598.45 386.388 1624.79 379.184C1681.55 363.46 1730.84 335.947 1781.27 301.971" stroke="#0F929F" stroke-width="1.34819" stroke-miterlimit="10"/>
<path d="M-194.164 857.515C-144.462 779.446 -37.9938 751.043 33.7594 781.28C77.1596 799.694 108.56 835 160.452 853.617C167.04 855.962 173.764 858.038 180.493 859.575C236.606 873.103 299.522 862.147 353.041 845.993C413.724 827.604 473.53 800.849 540.2 792.485C629.678 781.203 705.11 823.468 784.716 799.164C807.827 792.069 829.23 779.567 848.371 763.138C883.667 732.95 911.785 690.032 931.821 646.106C959.268 585.925 976.232 521.616 1004.21 461.979C1007.78 454.322 1011.62 446.668 1015.59 439.285C1050.76 373.908 1110.43 313.851 1182.77 304.858C1216.1 300.676 1247.33 306.993 1278.25 318.566C1334.84 339.378 1388.19 377.826 1448.17 396.239C1482.61 406.761 1517.9 410.01 1551.76 407.855C1581.3 405.935 1610.07 400.098 1636.56 391.277C1693.74 372.321 1742.94 341.167 1792.85 304.356" stroke="#0D99A6" stroke-width="1.34819" stroke-miterlimit="10"/>
<path d="M-195.741 852.514C-145.102 775.127 -36.2327 749.979 34.2649 785.463C76.9663 806.973 106.315 845.902 157.658 865.863C164.108 868.477 170.833 870.553 177.561 872.225C233.264 886.423 296.193 873.715 349.326 855.266C409.22 834.444 468.372 805.257 534.901 797.566C625.586 787.103 702.446 836.255 784.593 814.398C808.508 808.118 830.582 795.892 850.395 779.737C886.903 749.829 915.831 706.648 936.143 662.05C964 601.198 980.568 535.807 1008.56 475.226C1012.13 467.435 1015.96 459.781 1019.93 452.128C1055.12 385.537 1115.74 324.544 1189.28 316.775C1223.15 313.271 1254.77 320.535 1285.81 333.053C1342.66 355.755 1396.27 395.822 1457.06 414.241C1492.03 424.768 1527.88 427.213 1562.42 423.849C1592.37 420.989 1621.55 413.672 1648.46 403.372C1706.21 381.319 1755.16 346.253 1804.69 306.743" stroke="#0BA0AD" stroke-width="1.34819" stroke-miterlimit="10"/>
<path d="M-197.454 847.511C-146.012 770.94 -34.7411 748.912 34.637 789.511C76.6394 814.115 104.072 856.67 154.728 878.108C161.178 880.857 167.766 883.067 174.493 884.873C229.785 899.877 292.865 885.283 345.341 864.671C404.578 841.687 463.078 809.663 529.332 802.779C621.223 793.135 699.377 849.039 784.334 829.901C809.051 824.436 831.796 812.619 852.282 796.605C889.866 766.975 919.742 723.397 940.326 678.397C968.459 616.738 984.765 550.401 1012.63 488.876C1016.2 480.95 1020.03 473.161 1024.01 465.373C1059.2 397.704 1120.77 335.64 1195.65 329.094C1230.05 326.134 1262.08 334.346 1293.38 347.944C1350.62 372.402 1404.21 414.357 1465.95 432.513C1501.46 442.91 1537.98 444.686 1573.07 440.113C1603.58 436.178 1633.17 427.652 1660.23 415.87C1718.54 390.586 1767.25 351.878 1816.26 309.532" stroke="#0AA8B5" stroke-width="1.34819" stroke-miterlimit="10"/>
<path d="M-199.031 842.376C-146.651 766.621 -32.9787 747.713 35.0091 793.559C76.3115 821.394 101.694 867.437 151.935 890.221C158.383 893.104 164.835 895.582 171.561 897.389C226.443 913.198 289.538 896.582 341.492 873.944C400.074 848.527 457.785 814.071 524.033 807.861C617.265 799.17 696.714 861.691 784.212 845.135C809.732 840.351 833.283 828.945 854.307 813.205C892.965 783.988 923.789 739.879 944.647 694.341C973.19 632.012 989.1 564.593 1016.97 501.989C1020.54 493.928 1024.38 486.004 1028.35 478.081C1063.55 409.334 1126.08 346.199 1202.16 340.877C1237.24 338.461 1269.52 347.753 1301.09 362.298C1358.58 388.645 1412.43 432.354 1474.84 450.247C1510.89 460.513 1547.96 461.484 1583.6 455.703C1614.65 450.694 1644.66 440.823 1671.86 427.558C1730.61 399.042 1779.21 356.693 1827.84 311.378" stroke="#08AFBC" stroke-width="1.34819" stroke-miterlimit="10"/>
<path d="M-200.743 837.374C-147.426 762.3 -31.4871 746.646 35.3811 797.606C75.8497 828.535 99.4501 878.205 149.006 902.331C155.318 905.482 161.77 907.961 168.36 909.901C222.832 926.382 286.077 907.879 337.374 883.078C395.3 855.365 452.224 818.205 518.331 812.803C612.77 804.931 693.513 874.204 783.687 860.231C810.009 856.262 834.231 845.266 855.928 829.531C895.797 800.729 927.433 756.221 948.565 710.146C977.519 647.012 993.168 578.512 1020.78 515.097C1024.35 506.901 1028.05 498.842 1032.16 490.92C1067.37 421.094 1130.85 356.888 1208.27 352.655C1243.88 350.783 1276.56 361.022 1308.25 376.646C1366 404.748 1420.1 450.213 1483.33 467.977C1519.78 478.246 1557.67 478.415 1593.86 471.424C1625.32 465.475 1655.74 454.124 1683.36 439.515C1742.67 407.902 1791.04 361.776 1839.15 313.625" stroke="#06B6C3" stroke-width="1.34819" stroke-miterlimit="10"/>
<path d="M-202.321 832.373C-148.066 758.116 -29.7249 745.447 35.8868 801.79C75.6554 835.949 97.2054 889.108 146.211 914.712C152.521 917.999 158.837 920.611 165.426 922.686C219.487 939.972 282.747 919.582 333.522 892.62C390.659 862.473 447.063 822.883 513.031 818.019C608.676 811.101 690.849 886.991 783.562 875.735C810.688 872.447 835.581 861.861 857.95 846.4C898.896 817.876 931.478 772.972 952.884 726.36C982.248 662.554 997.502 592.973 1025.12 528.614C1028.69 520.284 1032.4 512.089 1036.5 504.033C1071.72 433.128 1136.15 367.851 1214.78 364.841C1251.06 363.514 1284 374.834 1315.95 391.404C1374.09 421.396 1428.18 468.613 1492.35 486.115C1529.35 496.254 1567.77 495.753 1604.65 487.555C1636.66 480.531 1667.5 467.97 1695.26 451.744C1755 416.9 1803.13 366.996 1850.86 316.146" stroke="#04BDCA" stroke-width="1.34819" stroke-miterlimit="10"/>
<path d="M-204.034 827.37C-148.842 753.929 -28.2331 744.38 36.259 805.837C75.3286 843.092 94.8272 899.874 143.417 926.824C149.592 930.244 156.041 932.992 162.495 935.201C216.144 953.293 279.421 930.88 329.808 901.893C386.29 869.314 441.903 827.425 507.732 823.099C604.582 817.269 688.052 899.507 783.44 890.968C811.368 888.496 837.066 878.32 860.109 863.001C902.264 834.891 935.659 789.588 957.339 742.439C987.113 677.963 1001.97 607.3 1029.46 541.996C1033.03 533.531 1036.74 525.202 1040.85 517.01C1076.08 445.028 1141.46 378.679 1221.42 376.894C1258.24 376.11 1291.57 388.377 1323.65 406.026C1382.05 437.908 1436.39 486.745 1501.24 504.253C1538.77 514.261 1577.88 512.957 1615.3 503.684C1647.72 495.72 1679.12 481.68 1707.03 464.107C1767.33 426.166 1815.22 372.486 1862.57 318.801" stroke="#02C4D2" stroke-width="1.34819" stroke-miterlimit="10"/>
<path d="M-205.611 822.369C-149.481 749.61 -26.4719 743.316 36.7646 810.021C75.1354 850.371 92.7175 910.778 140.621 939.205C197.248 972.691 270.13 946.31 325.956 911.434C381.783 876.558 436.609 831.967 502.296 828.449C600.354 823.303 685.252 912.427 783.315 906.607C864.383 901.729 927.631 832.398 961.658 758.787C995.684 685.177 1009.82 603.318 1045.06 530.257C1080.43 457.196 1146.76 389.777 1227.8 389.214C1333.23 388.441 1408.14 495.687 1510.13 522.39C1581.16 541.026 1657.93 517.508 1718.8 476.336C1779.66 435.163 1827.31 377.841 1874.14 321.186" stroke="#00CBD9" stroke-width="1.34819" stroke-miterlimit="10"/>
<path d="M-205.017 815.498C-147.678 743.288 -25.0709 736.721 39.6617 801.82C66.2768 828.594 83.7858 864.462 106.873 894.039C117.95 908.149 130.253 920.786 145.548 930.077C158.025 937.727 171.335 942.418 185.067 944.955C233.399 953.566 287.631 932.699 331.66 906.222C337.756 902.631 343.854 898.77 349.816 895.043C400.226 863.224 450.666 827.496 509.481 823.518C584.346 818.725 652.174 867.671 723.455 889.544C744.705 896.051 766.379 900.135 788.631 899.369C868.331 896.907 930.448 834.173 965.513 765.56C973.595 749.716 980.871 733.46 987.611 716.796C1009.9 661.158 1026.42 601.564 1054.1 546.104C1064.51 525.29 1077.35 504.9 1092.06 486.142C1128.43 440.324 1176.97 405.525 1232.81 402.871C1262.08 401.488 1288.98 408.715 1314.91 420.113C1379.13 448.401 1437.21 502.931 1508.8 519.009C1578.79 534.805 1654.61 510.876 1715.34 470.646C1776.06 430.416 1824.63 375.258 1872.25 321.576" stroke="#02CDD5" stroke-width="1.34819" stroke-miterlimit="10"/>
<path d="M-204.559 808.761C-145.875 737.101 -23.8067 730.395 42.5565 793.889C69.8511 819.994 88.3094 855.196 111.801 884.776C123.013 898.887 135.314 911.659 150.608 921.219C162.949 929.003 176.256 934.098 189.985 936.905C238.308 946.73 292.934 927.079 337.632 901.282C343.728 897.69 349.959 894.1 356.056 890.374C407.134 859.235 457.979 823.51 516.934 818.859C591.134 812.982 659.117 859.367 729.856 881.506C750.97 888.147 772.238 892.497 794.079 892.537C872.41 892.626 933.127 836.352 969.634 772.873C977.975 758.245 985.647 743.071 992.919 727.355C1016.8 675.1 1035.06 617.138 1063.4 562.492C1074.09 541.95 1086.92 521.694 1101.5 503.206C1137.32 457.518 1184.25 422.166 1238.22 417.341C1266.55 414.871 1292.53 420.473 1317.66 430.247C1380.03 454.206 1437.34 503.336 1507.88 516.44C1576.81 529.397 1651.56 504.919 1712.28 465.633C1772.99 426.347 1822.36 373.487 1870.76 322.643" stroke="#05CFD1" stroke-width="1.34819" stroke-miterlimit="10"/>
<path d="M-203.964 801.889C-144.072 730.779 -22.4056 723.799 45.4525 785.823C73.4255 811.394 92.8329 845.929 116.729 875.512C128.076 889.625 140.376 902.532 155.667 912.361C168.006 920.415 181.041 925.777 194.768 928.854C243.081 939.892 298.102 921.458 343.469 896.34C349.699 892.884 355.93 889.294 362.16 885.704C413.907 855.244 465.022 819.521 524.253 814.064C597.92 807.374 666.062 850.794 736.125 873.197C757.103 879.972 778.097 884.724 799.529 885.435C876.493 887.94 936.078 838.263 973.622 779.916C982.359 766.504 990.291 752.411 997.96 737.642C1023.43 688.636 1043.43 632.305 1072.44 578.474C1083.26 558.202 1096.09 538.216 1110.53 519.726C1145.81 474.304 1191.13 438.265 1243.1 431.267C1270.36 427.71 1295.54 431.822 1320.01 439.703C1380.66 459.334 1437.21 502.931 1506.56 513.194C1574.3 523.175 1648.24 498.421 1708.95 460.078C1769.66 421.736 1819.68 371.174 1869 323.168" stroke="#07D1CC" stroke-width="1.34819" stroke-miterlimit="10"/>
<path d="M-203.371 795.153C-142.27 724.591 -21.0057 717.339 48.4821 777.892C77.1346 802.795 97.491 836.664 121.791 866.385C133.272 880.498 145.706 893.541 160.725 903.638C172.929 911.826 185.96 917.593 199.685 920.938C247.989 933.19 303.405 915.838 349.44 891.534C355.803 888.215 362.034 884.624 368.399 881.035C420.68 851.254 472.334 815.535 531.705 809.405C604.706 801.766 673.005 842.356 742.526 865.159C763.235 871.932 783.956 877.086 804.977 878.468C880.573 883.523 938.894 840.173 977.744 787.095C986.741 774.763 995.204 761.888 1003.27 748.066C1030.47 702.309 1052.21 647.745 1081.75 594.727C1092.83 574.862 1105.67 554.876 1119.83 536.519C1154.58 491.227 1198.42 454.637 1248.38 445.331C1274.57 440.552 1298.95 443.174 1322.63 449.431C1381.43 464.733 1437.21 502.931 1505.5 510.219C1572.18 517.36 1645.06 492.193 1705.76 454.795C1766.46 417.396 1817.27 368.997 1867.38 323.964" stroke="#09D2C8" stroke-width="1.34819" stroke-miterlimit="10"/>
<path d="M-202.778 788.416C-140.333 718.405 -19.6066 711.013 51.5119 769.962C80.8439 794.196 102.283 827.534 126.852 857.257C138.469 871.372 150.902 884.549 165.919 894.916C178.12 903.373 191.015 909.409 204.602 913.158C252.895 926.623 308.706 910.487 355.41 886.863C361.773 883.543 368.271 880.225 374.637 876.636C427.586 847.534 479.643 811.954 539.157 804.881C611.491 796.292 679.948 834.052 748.926 857.256C769.499 864.162 789.813 869.718 810.559 871.771C884.787 879.242 941.977 842.49 981.865 794.408C991.122 783.292 999.98 771.498 1008.58 758.759C1037.36 716.386 1060.84 663.319 1091.06 611.115C1102.41 591.522 1115.24 571.806 1129.14 553.446C1163.34 508.285 1205.57 471.008 1253.66 459.664C1278.91 453.799 1302.23 454.93 1325.25 459.294C1382.33 470.268 1437.21 503.065 1504.45 507.379C1570.07 511.681 1642.01 485.967 1702.56 449.511C1763.26 413.056 1814.86 366.955 1865.76 324.625" stroke="#0BD4C4" stroke-width="1.34819" stroke-miterlimit="10"/>
<path d="M-202.183 781.546C-138.53 712.217 -18.2055 704.419 54.4078 761.896C84.4182 785.596 106.808 818.133 131.781 847.859C143.533 861.975 155.964 875.287 170.979 885.924C183.044 894.515 195.937 900.82 209.521 904.973C257.805 919.652 313.876 904.731 361.383 881.788C367.88 878.604 374.378 875.286 380.877 871.832C434.495 843.41 486.821 807.967 546.611 800.087C618.277 790.685 687.028 825.481 755.328 849.083C775.63 856.122 795.807 861.946 816.144 864.671C889.004 874.558 944.927 844.401 985.988 801.452C995.505 791.552 1004.76 780.84 1013.89 769.049C1044.27 729.924 1069.62 678.625 1100.37 627.099C1111.85 607.777 1124.68 588.33 1138.44 569.97C1172.24 525.075 1212.72 486.975 1258.94 473.593C1283.13 466.507 1305.65 466.148 1327.87 468.888C1383.23 475.534 1437.21 502.931 1503.39 504.27C1567.96 505.732 1638.82 479.605 1699.37 444.093C1760.06 408.581 1812.32 364.643 1864.13 325.286" stroke="#0ED6C0" stroke-width="1.34819" stroke-miterlimit="10"/>
<path d="M-201.59 774.809C-136.728 706.03 -16.8056 697.958 57.4374 753.966C88.1272 776.997 111.466 808.867 136.843 838.732C148.729 852.849 161.16 866.296 176.038 877.201C188.101 886.061 200.856 892.635 214.303 897.057C262.442 912.948 319.043 899.245 367.218 876.981C373.849 873.933 380.346 870.749 386.98 867.297C441.267 839.554 493.997 804.114 553.928 795.427C624.928 785.075 693.835 817.176 761.46 841.043C781.626 848.215 801.395 854.441 821.322 857.836C892.813 870.274 947.607 846.445 989.839 808.763C999.617 799.943 1009.27 790.448 1018.93 779.605C1050.9 743.864 1077.99 694.196 1109.27 643.484C1121.02 624.433 1133.85 605.121 1147.34 586.894C1180.59 542.129 1219.46 503.477 1263.68 487.788C1286.93 479.615 1308.52 477.631 1329.95 478.612C1383.45 480.928 1436.67 502.926 1501.8 501.291C1565.31 499.913 1635.23 473.374 1695.64 438.804C1756.18 404.236 1809.37 362.597 1861.97 326.077" stroke="#10D8BB" stroke-width="1.34819" stroke-miterlimit="10"/>
<path d="M-200.996 767.938C-134.79 699.708 -15.4044 691.363 60.3335 745.899C91.7017 768.396 116.124 799.602 141.771 829.468C153.793 843.451 166.356 857.169 181.098 868.208C193.025 877.202 205.643 884.179 219.221 889.007C267.351 906.111 324.347 893.49 373.19 872.04C379.82 869.127 386.587 865.946 393.085 862.627C448.04 835.564 501.174 800.262 561.247 790.631C631.714 779.467 700.645 808.602 767.727 832.869C787.624 840.039 807.255 846.668 826.77 850.869C896.894 865.722 950.557 848.491 993.827 815.941C1003.86 808.336 1013.91 799.923 1024.1 790.163C1057.66 757.67 1086.49 709.634 1118.44 659.736C1130.32 641.091 1143.28 621.915 1156.51 603.685C1189.22 559.051 1226.48 519.847 1268.82 501.985C1291.01 492.59 1311.8 489.252 1332.57 488.474C1384.35 486.463 1436.67 503.061 1500.75 498.451C1563.07 494.097 1632.04 467.146 1692.58 433.521C1753.12 399.896 1807.09 360.556 1860.35 326.873" stroke="#12DAB7" stroke-width="1.34819" stroke-miterlimit="10"/>
<path d="M-200.402 761.202C-132.988 693.521 -14.0055 685.038 63.3631 737.969C95.4108 759.798 120.782 790.337 146.832 820.341C158.989 834.326 171.552 848.178 186.157 859.486C198.082 868.749 210.562 875.995 224.138 881.092C272.258 899.409 329.649 888.005 379.026 867.234C385.791 864.322 392.557 861.275 399.188 858.092C454.812 831.709 508.214 796.543 568.564 786.107C638.365 773.993 707.588 800.299 773.993 824.965C793.753 832.269 812.976 839.299 832.083 844.036C900.84 861.305 953.371 850.671 997.814 823.119C1008.25 816.731 1018.69 809.399 1029.27 800.586C1064.43 771.341 1095.13 725.074 1127.62 675.854C1139.76 657.48 1152.59 638.573 1165.81 620.343C1197.99 575.84 1233.63 536.083 1274.1 515.915C1295.22 505.433 1315.21 500.47 1335.19 497.933C1385.26 491.594 1436.81 502.658 1499.69 495.208C1560.96 488.014 1628.86 460.65 1689.39 427.969C1749.92 395.287 1804.55 358.11 1858.72 327.265" stroke="#15DCB3" stroke-width="1.34819" stroke-miterlimit="10"/>
<path d="M-199.809 754.465C-131.05 687.335 -12.4707 678.578 66.259 729.903C98.9851 751.198 125.306 781.07 151.761 810.943C164.188 824.929 176.614 838.916 191.217 850.493C203.006 859.89 215.484 867.405 228.923 872.906C277.033 892.437 334.819 882.249 384.864 862.157C391.763 859.381 398.527 856.469 405.294 853.288C461.586 827.583 515.392 792.556 575.884 781.177C645.017 768.249 714.398 791.59 780.261 816.656C799.885 824.093 818.702 831.39 837.533 836.934C904.921 856.754 956.323 852.447 1001.8 830.161C1012.49 824.989 1023.33 818.739 1034.45 810.874C1071.19 785.013 1103.64 740.242 1136.79 691.971C1149.2 673.87 1162.03 655.097 1174.98 637.135C1206.61 592.897 1240.64 552.453 1279.25 530.112C1299.43 518.544 1318.49 511.956 1337.67 507.795C1386.02 496.993 1436.67 502.792 1498.5 492.367C1558.71 482.333 1625.67 454.557 1686.06 422.684C1746.58 390.946 1802 356.067 1856.97 328.06" stroke="#17DEAF" stroke-width="1.34819" stroke-miterlimit="10"/>
<path d="M-199.215 747.594C-129.247 681.013 -11.0695 671.983 69.2899 721.838C102.695 742.464 129.965 771.67 156.824 801.681C169.385 815.668 181.811 829.79 196.411 841.636C208.064 851.302 220.54 859.087 233.976 864.857C282.076 885.601 340.258 876.495 390.971 857.218C397.868 854.577 404.902 851.667 411.668 848.62C468.629 823.595 522.838 788.706 583.471 776.519C651.937 762.776 721.612 783.154 786.797 808.619C806.152 816.054 824.829 823.889 843.251 829.969C909.406 852.206 959.542 854.495 1006.19 837.342C1017.15 833.251 1028.38 828.217 1040.03 821.435C1078.23 798.821 1112.68 755.819 1146.37 708.227C1158.91 690.396 1171.87 671.894 1184.55 653.93C1215.65 609.822 1248.06 568.691 1284.8 544.313C1303.91 531.523 1322.17 523.58 1340.56 517.526C1387.19 502.395 1436.94 502.794 1497.72 489.394C1556.87 476.521 1622.76 448.197 1683.14 417.402C1743.65 386.608 1799.86 353.893 1855.61 328.858" stroke="#19DFAA" stroke-width="1.34819" stroke-miterlimit="10"/>
<path d="M-198.621 740.857C-127.445 674.825 -9.67062 665.658 72.3195 713.908C106.405 733.865 134.757 762.54 161.886 792.553C174.582 806.542 187.141 820.799 201.47 832.913C213.121 842.714 225.459 850.902 238.757 857.076C286.847 879.168 345.424 871.144 396.806 852.545C403.837 850.04 410.87 847.265 417.77 844.22C475.265 819.873 529.878 785.122 590.788 771.993C658.721 757.438 728.419 774.984 793.063 800.579C812.282 808.149 830.553 816.25 848.564 823.135C913.35 847.923 962.356 856.675 1010.05 844.519C1021.39 841.643 1032.89 837.691 1045.07 831.856C1084.86 812.491 1121.05 771.121 1155.4 724.478C1168.22 707.054 1181.04 688.686 1193.59 670.72C1224.14 626.743 1254.94 585.06 1289.67 558.374C1307.71 544.497 1325.18 534.929 1342.77 527.251C1387.69 507.657 1436.53 502.79 1496.26 486.416C1554.36 470.703 1619.3 441.967 1679.67 412.116C1740.04 382.265 1797.18 351.848 1853.72 329.651" stroke="#1BE1A6" stroke-width="1.34819" stroke-miterlimit="10"/>
<path d="M-198.027 733.986C-125.507 668.504 -8.26951 659.063 75.2155 705.841C109.979 725.265 139.282 753.139 166.814 783.29C179.645 797.28 192.202 811.672 206.529 824.055C218.043 834.125 230.245 842.581 243.675 849.026C291.62 872.33 350.727 865.524 402.779 847.47C409.945 844.966 416.977 842.326 424.011 839.416C482.174 815.749 537.19 781.136 598.242 767.199C665.507 751.829 735.363 766.411 799.466 792.407C818.414 800.109 836.412 808.612 854.148 816.169C917.566 843.373 965.575 858.723 1014.17 851.697C1025.78 850.038 1037.66 847.302 1050.38 842.28C1091.76 826.164 1129.69 786.56 1164.71 740.596C1177.79 723.444 1190.61 705.211 1202.89 687.378C1232.9 643.666 1262.09 601.296 1294.95 572.438C1312.06 557.474 1328.6 546.282 1345.53 536.845C1388.73 512.788 1436.67 502.657 1495.34 483.308C1552.25 464.754 1616.25 435.471 1676.62 406.564C1736.98 377.656 1794.77 349.537 1852.23 330.044" stroke="#1EE3A2" stroke-width="1.34819" stroke-miterlimit="10"/>
<path d="M-197.434 727.25C-123.704 662.317 -6.86942 652.603 78.2452 697.911C113.688 716.666 143.939 744.008 171.876 774.028C184.842 788.019 197.399 802.546 211.589 815.198C223.102 825.402 235.165 834.262 248.593 840.976C296.529 865.494 356.03 859.904 408.751 842.53C415.915 840.16 423.082 837.521 430.25 834.747C489.083 811.625 544.501 777.285 605.696 762.406C672.293 746.222 742.443 757.839 805.868 784.234C824.68 792.07 842.406 800.84 859.598 809.068C921.649 838.687 968.525 860.769 1018.29 858.741C1030.16 858.297 1042.44 856.643 1055.55 852.703C1098.53 839.835 1138.33 801.865 1173.75 756.713C1186.96 739.831 1199.92 721.869 1211.92 704.034C1241.39 660.452 1268.97 617.53 1299.96 586.5C1316 570.449 1331.61 557.631 1347.87 546.572C1389.36 518.187 1436.4 502.655 1494.01 480.332C1549.87 458.803 1612.93 429.243 1673.15 401.278C1733.51 373.314 1792.1 347.359 1850.34 330.838" stroke="#20E59E" stroke-width="1.34819" stroke-miterlimit="10"/>
<path d="M-196.84 720.513C-121.767 656.131 -5.4694 646.142 81.1401 689.98C117.261 708.201 148.597 734.743 176.803 764.9C189.904 778.891 202.594 793.554 216.648 806.34C228.024 816.813 240.085 825.942 253.377 832.925C301.302 858.656 361.065 854.147 414.588 837.588C421.886 835.355 429.187 832.851 436.354 830.078C495.857 807.635 551.678 773.433 613.013 757.746C679.078 740.748 749.252 749.4 812.134 776.195C830.677 784.028 848.129 793.336 865.046 802.235C925.728 834.405 971.474 862.95 1022.28 866.054C1034.54 866.826 1047.22 866.254 1060.72 863.261C1105.16 853.64 1146.84 817.437 1182.92 773.1C1196.4 756.49 1209.35 738.797 1221.09 720.96C1250.16 677.51 1275.99 634.035 1305.11 600.697C1320.21 583.426 1334.89 569.118 1350.36 556.299C1389.99 523.45 1436.4 502.655 1492.82 477.356C1547.62 452.988 1609.61 423.015 1669.83 395.993C1730.17 368.973 1789.55 345.316 1848.58 331.633" stroke="#22E799" stroke-width="1.34819" stroke-miterlimit="10"/>
<path d="M-196.246 713.642C-119.964 649.808 -4.06952 639.682 84.1707 681.915C120.972 699.467 153.257 725.342 181.866 755.637C195.101 769.63 207.791 784.428 221.842 797.483C233.217 808.091 245.141 817.489 258.428 825.011C306.344 851.955 366.502 848.662 420.693 832.783C428.126 830.551 435.426 828.182 442.727 825.544C502.898 803.781 558.987 769.851 620.601 753.087C685.998 735.276 756.464 741.099 818.67 768.157C837.077 776.125 854.257 785.7 870.764 795.27C930.078 829.856 974.692 865.133 1026.67 873.1C1039.19 875.087 1052.27 875.597 1066.3 873.552C1112.33 867.18 1155.88 832.745 1192.5 789.086C1206.11 772.881 1219.06 755.189 1230.8 737.486C1259.32 694.302 1283.54 650.139 1310.66 614.628C1324.69 596.27 1338.57 580.337 1353.25 565.894C1391.16 528.582 1436.67 502.387 1492.04 474.114C1545.78 446.906 1606.83 416.386 1667.04 390.308C1727.38 364.232 1787.41 342.737 1847.36 332.027" stroke="#25E995" stroke-width="1.34819" stroke-miterlimit="10"/>
<path d="M-195.653 706.906C-118.161 643.621 -2.66937 633.222 87.2005 673.984C124.68 691.003 157.914 716.212 186.927 746.51C200.298 760.504 212.986 775.436 226.901 788.76C238.139 799.636 249.926 809.303 263.211 817.095C311.117 845.252 371.669 843.176 426.529 827.976C433.961 825.879 441.396 823.512 448.696 821.008C509.536 799.924 566.028 766.132 627.784 748.426C692.512 729.935 763.138 732.658 824.801 760.117C842.938 768.217 859.846 778.06 875.942 788.436C933.889 825.437 977.37 867.446 1030.39 880.41C1043.17 883.613 1056.64 885.204 1071.21 884.243C1118.82 881.119 1164.12 848.315 1201.4 805.471C1215.28 789.538 1228.23 772.115 1239.7 754.545C1267.68 711.491 1290.28 666.776 1315.53 629.093C1328.49 609.648 1341.58 592.091 1355.46 575.889C1391.52 534.113 1436.27 502.654 1490.58 471.406C1543.13 441.357 1603.24 410.425 1663.44 385.291C1723.64 360.022 1784.6 340.962 1845.2 333.089" stroke="#27EB91" stroke-width="1.34819" stroke-miterlimit="10"/>
<path d="M-195.059 700.169C-116.224 637.435 -1.26933 626.761 90.0954 666.053C128.254 682.403 162.572 706.946 191.855 737.247C205.36 751.242 218.048 766.309 231.96 779.903C243.197 790.913 254.846 800.984 268.129 809.045C316.025 838.416 376.972 837.556 432.501 823.036C440.067 821.074 447.635 818.843 454.935 816.34C516.444 795.935 573.338 762.416 635.236 743.767C699.432 724.463 770.081 724.22 831.203 752.079C849.203 760.313 865.704 770.557 881.526 781.47C938.104 821.022 980.454 869.494 1034.64 887.59C1047.69 892.009 1061.55 894.547 1076.65 894.668C1125.86 894.793 1172.89 863.756 1210.85 821.726C1224.99 806.065 1237.94 788.911 1249.13 771.339C1276.58 728.416 1297.7 683.15 1320.94 643.159C1332.97 622.627 1344.99 603.444 1358.35 585.619C1392.69 539.381 1436.54 502.656 1489.8 468.433C1541.29 435.545 1600.46 404.201 1660.52 379.875C1720.71 355.55 1782.46 338.788 1843.84 333.617" stroke="#29EC8D" stroke-width="1.34819" stroke-miterlimit="10"/>
<path d="M-194.465 693.298C-114.421 631.112 0.130616 620.301 93.1272 657.853C131.965 673.535 167.231 697.546 196.919 727.85C210.694 741.847 223.38 757.049 237.021 770.91C248.121 782.189 259.768 792.529 272.912 800.994C320.664 831.577 382.142 831.8 438.203 818.093C445.903 816.267 453.471 814.036 460.905 811.669C522.947 791.943 580.38 758.563 642.42 738.971C705.948 718.987 776.891 715.646 837.335 743.904C855.201 752.137 871.429 762.783 886.705 774.501C941.916 816.469 983.133 871.672 1038.36 894.765C1051.66 900.265 1065.92 904.019 1081.56 905.088C1132.36 908.462 1181.26 879.058 1219.75 837.841C1234.03 822.451 1246.97 805.432 1258.03 787.994C1284.94 745.336 1304.45 699.383 1325.82 657.219C1336.92 635.467 1348 614.793 1360.56 595.21C1393.06 544.507 1436.13 502.518 1488.34 465.321C1538.78 429.458 1596.87 397.701 1656.92 374.453C1717.1 351.072 1779.64 336.473 1841.82 334.275" stroke="#2BEE88" stroke-width="1.34819" stroke-miterlimit="10"/>
<path d="M-193.872 686.562C-112.619 624.925 1.53063 613.841 96.022 649.922C135.539 665.069 171.755 688.28 201.846 718.721C215.755 732.72 228.442 747.921 242.079 762.187C253.043 773.6 264.687 784.345 277.829 793.079C325.572 824.875 387.444 826.315 444.174 813.287C451.874 811.462 459.574 809.501 467.143 807.135C529.854 788.088 587.688 755.116 649.872 734.447C712.865 713.785 783.834 707.343 843.735 736.001C861.33 744.366 877.285 755.415 892.286 767.804C946.128 812.323 986.08 874.123 1042.62 902.08C1056.31 908.931 1070.84 913.631 1087 915.783C1139.39 922.405 1190.04 894.768 1229.19 854.365C1243.74 839.381 1256.68 822.498 1267.47 805.057C1293.83 762.529 1311.73 716.024 1331.23 671.689C1341.26 648.849 1351.41 626.55 1363.31 605.343C1393.82 550.176 1436.26 502.923 1487.41 462.752C1536.8 424.049 1593.95 391.88 1653.86 369.575C1714.04 347.137 1777.23 334.836 1840.32 335.476" stroke="#2EF084" stroke-width="1.34819" stroke-miterlimit="10"/>
<path d="M-193.277 679.69C-76.0963 593.129 103.786 606.436 206.909 709.459C232.188 734.738 253.384 764.704 282.747 785.028C337.05 822.54 410.003 820.833 473.382 802.466C536.762 784.099 594.999 751.264 657.326 729.653C719.652 708.041 790.777 698.904 850.137 727.828C945.489 774.297 987.973 907.034 1092.17 926.071C1166.08 939.606 1237.43 885.71 1276.64 821.579C1315.85 757.447 1333.03 682.354 1365.66 614.665C1449.98 439.936 1644.91 325.146 1838.57 335.732" stroke="#30F280" stroke-width="1.34819" stroke-miterlimit="10"/>
</g>
</g>
<g opacity="0.2">
<mask id="mask1_68_164" style="mask-type:luminance" maskUnits="userSpaceOnUse" x="-804" y="-293" width="1545" height="1030">
<path d="M741 -293H-803V736.333H741V-293Z" fill="white"/>
</mask>
<g mask="url(#mask1_68_164)">
<path d="M156.853 472.567C158.275 472.567 159.427 471.415 159.427 469.993C159.427 468.572 158.275 467.42 156.853 467.42C155.432 467.42 154.28 468.572 154.28 469.993C154.28 471.415 155.432 472.567 156.853 472.567Z" fill="#18A772"/>
<path d="M156.853 442.974C158.275 442.974 159.427 441.821 159.427 440.4C159.427 438.979 158.275 437.827 156.853 437.827C155.432 437.827 154.28 438.979 154.28 440.4C154.28 441.821 155.432 442.974 156.853 442.974Z" fill="#18A772"/>
<path d="M156.853 413.38C158.275 413.38 159.427 412.228 159.427 410.807C159.427 409.386 158.275 408.234 156.853 408.234C155.432 408.234 154.28 409.386 154.28 410.807C154.28 412.228 155.432 413.38 156.853 413.38Z" fill="#18A772"/>
<path d="M156.853 383.787C158.275 383.787 159.427 382.635 159.427 381.213C159.427 379.792 158.275 378.64 156.853 378.64C155.432 378.64 154.28 379.792 154.28 381.213C154.28 382.635 155.432 383.787 156.853 383.787Z" fill="#18A772"/>
<path d="M156.853 354.194C158.275 354.194 159.427 353.041 159.427 351.62C159.427 350.199 158.275 349.047 156.853 349.047C155.432 349.047 154.28 350.199 154.28 351.62C154.28 353.041 155.432 354.194 156.853 354.194Z" fill="#18A772"/>
<path d="M189.02 472.567C190.441 472.567 191.593 471.415 191.593 469.993C191.593 468.572 190.441 467.42 189.02 467.42C187.599 467.42 186.447 468.572 186.447 469.993C186.447 471.415 187.599 472.567 189.02 472.567Z" fill="#18A772"/>
<path d="M189.02 442.974C190.441 442.974 191.593 441.821 191.593 440.4C191.593 438.979 190.441 437.827 189.02 437.827C187.599 437.827 186.447 438.979 186.447 440.4C186.447 441.821 187.599 442.974 189.02 442.974Z" fill="#18A772"/>
<path d="M189.02 413.38C190.441 413.38 191.593 412.228 191.593 410.807C191.593 409.386 190.441 408.234 189.02 408.234C187.599 408.234 186.447 409.386 186.447 410.807C186.447 412.228 187.599 413.38 189.02 413.38Z" fill="#18A772"/>
<path d="M189.02 383.787C190.441 383.787 191.593 382.635 191.593 381.213C191.593 379.792 190.441 378.64 189.02 378.64C187.599 378.64 186.447 379.792 186.447 381.213C186.447 382.635 187.599 383.787 189.02 383.787Z" fill="#18A772"/>
<path d="M189.02 354.194C190.441 354.194 191.593 353.041 191.593 351.62C191.593 350.199 190.441 349.047 189.02 349.047C187.599 349.047 186.447 350.199 186.447 351.62C186.447 353.041 187.599 354.194 189.02 354.194Z" fill="#18A772"/>
<path d="M221.187 472.567C222.608 472.567 223.76 471.415 223.76 469.993C223.76 468.572 222.608 467.42 221.187 467.42C219.766 467.42 218.613 468.572 218.613 469.993C218.613 471.415 219.766 472.567 221.187 472.567Z" fill="#18A772"/>
<path d="M221.187 442.974C222.608 442.974 223.76 441.821 223.76 440.4C223.76 438.979 222.608 437.827 221.187 437.827C219.766 437.827 218.613 438.979 218.613 440.4C218.613 441.821 219.766 442.974 221.187 442.974Z" fill="#18A772"/>
<path d="M221.187 413.38C222.608 413.38 223.76 412.228 223.76 410.807C223.76 409.386 222.608 408.234 221.187 408.234C219.766 408.234 218.613 409.386 218.613 410.807C218.613 412.228 219.766 413.38 221.187 413.38Z" fill="#18A772"/>
<path d="M221.187 383.787C222.608 383.787 223.76 382.635 223.76 381.213C223.76 379.792 222.608 378.64 221.187 378.64C219.766 378.64 218.613 379.792 218.613 381.213C218.613 382.635 219.766 383.787 221.187 383.787Z" fill="#18A772"/>
<path d="M221.187 354.194C222.608 354.194 223.76 353.041 223.76 351.62C223.76 350.199 222.608 349.047 221.187 349.047C219.766 349.047 218.613 350.199 218.613 351.62C218.613 353.041 219.766 354.194 221.187 354.194Z" fill="#18A772"/>
<path d="M253.353 472.567C254.775 472.567 255.927 471.415 255.927 469.993C255.927 468.572 254.775 467.42 253.353 467.42C251.932 467.42 250.78 468.572 250.78 469.993C250.78 471.415 251.932 472.567 253.353 472.567Z" fill="#18A772"/>
<path d="M253.353 442.974C254.775 442.974 255.927 441.821 255.927 440.4C255.927 438.979 254.775 437.827 253.353 437.827C251.932 437.827 250.78 438.979 250.78 440.4C250.78 441.821 251.932 442.974 253.353 442.974Z" fill="#18A772"/>
<path d="M253.353 413.38C254.775 413.38 255.927 412.228 255.927 410.807C255.927 409.386 254.775 408.234 253.353 408.234C251.932 408.234 250.78 409.386 250.78 410.807C250.78 412.228 251.932 413.38 253.353 413.38Z" fill="#18A772"/>
<path d="M253.353 383.787C254.775 383.787 255.927 382.635 255.927 381.213C255.927 379.792 254.775 378.64 253.353 378.64C251.932 378.64 250.78 379.792 250.78 381.213C250.78 382.635 251.932 383.787 253.353 383.787Z" fill="#18A772"/>
<path d="M253.353 354.194C254.775 354.194 255.927 353.041 255.927 351.62C255.927 350.199 254.775 349.047 253.353 349.047C251.932 349.047 250.78 350.199 250.78 351.62C250.78 353.041 251.932 354.194 253.353 354.194Z" fill="#18A772"/>
<path d="M285.52 472.567C286.941 472.567 288.093 471.415 288.093 469.993C288.093 468.572 286.941 467.42 285.52 467.42C284.099 467.42 282.947 468.572 282.947 469.993C282.947 471.415 284.099 472.567 285.52 472.567Z" fill="#18A772"/>
<path d="M285.52 442.974C286.941 442.974 288.093 441.821 288.093 440.4C288.093 438.979 286.941 437.827 285.52 437.827C284.099 437.827 282.947 438.979 282.947 440.4C282.947 441.821 284.099 442.974 285.52 442.974Z" fill="#18A772"/>
<path d="M285.52 413.38C286.941 413.38 288.093 412.228 288.093 410.807C288.093 409.386 286.941 408.234 285.52 408.234C284.099 408.234 282.947 409.386 282.947 410.807C282.947 412.228 284.099 413.38 285.52 413.38Z" fill="#18A772"/>
<path d="M285.52 383.787C286.941 383.787 288.093 382.635 288.093 381.213C288.093 379.792 286.941 378.64 285.52 378.64C284.099 378.64 282.947 379.792 282.947 381.213C282.947 382.635 284.099 383.787 285.52 383.787Z" fill="#18A772"/>
<path d="M285.52 354.194C286.941 354.194 288.093 353.041 288.093 351.62C288.093 350.199 286.941 349.047 285.52 349.047C284.099 349.047 282.947 350.199 282.947 351.62C282.947 353.041 284.099 354.194 285.52 354.194Z" fill="#18A772"/>
<path d="M317.687 472.567C319.108 472.567 320.26 471.415 320.26 469.993C320.26 468.572 319.108 467.42 317.687 467.42C316.266 467.42 315.113 468.572 315.113 469.993C315.113 471.415 316.266 472.567 317.687 472.567Z" fill="#18A772"/>
<path d="M317.687 442.974C319.108 442.974 320.26 441.821 320.26 440.4C320.26 438.979 319.108 437.827 317.687 437.827C316.266 437.827 315.113 438.979 315.113 440.4C315.113 441.821 316.266 442.974 317.687 442.974Z" fill="#18A772"/>
<path d="M317.687 413.38C319.108 413.38 320.26 412.228 320.26 410.807C320.26 409.386 319.108 408.234 317.687 408.234C316.266 408.234 315.113 409.386 315.113 410.807C315.113 412.228 316.266 413.38 317.687 413.38Z" fill="#18A772"/>
<path d="M317.687 383.787C319.108 383.787 320.26 382.635 320.26 381.213C320.26 379.792 319.108 378.64 317.687 378.64C316.266 378.64 315.113 379.792 315.113 381.213C315.113 382.635 316.266 383.787 317.687 383.787Z" fill="#18A772"/>
<path d="M317.687 354.194C319.108 354.194 320.26 353.041 320.26 351.62C320.26 350.199 319.108 349.047 317.687 349.047C316.266 349.047 315.113 350.199 315.113 351.62C315.113 353.041 316.266 354.194 317.687 354.194Z" fill="#18A772"/>
<path d="M349.853 472.567C351.275 472.567 352.427 471.415 352.427 469.993C352.427 468.572 351.275 467.42 349.853 467.42C348.432 467.42 347.28 468.572 347.28 469.993C347.28 471.415 348.432 472.567 349.853 472.567Z" fill="#18A772"/>
<path d="M349.853 442.974C351.275 442.974 352.427 441.821 352.427 440.4C352.427 438.979 351.275 437.827 349.853 437.827C348.432 437.827 347.28 438.979 347.28 440.4C347.28 441.821 348.432 442.974 349.853 442.974Z" fill="#18A772"/>
<path d="M349.853 413.38C351.275 413.38 352.427 412.228 352.427 410.807C352.427 409.386 351.275 408.234 349.853 408.234C348.432 408.234 347.28 409.386 347.28 410.807C347.28 412.228 348.432 413.38 349.853 413.38Z" fill="#18A772"/>
<path d="M349.853 383.787C351.275 383.787 352.427 382.635 352.427 381.213C352.427 379.792 351.275 378.64 349.853 378.64C348.432 378.64 347.28 379.792 347.28 381.213C347.28 382.635 348.432 383.787 349.853 383.787Z" fill="#18A772"/>
<path d="M349.853 354.194C351.275 354.194 352.427 353.041 352.427 351.62C352.427 350.199 351.275 349.047 349.853 349.047C348.432 349.047 347.28 350.199 347.28 351.62C347.28 353.041 348.432 354.194 349.853 354.194Z" fill="#18A772"/>
<path d="M382.02 472.567C383.441 472.567 384.593 471.415 384.593 469.993C384.593 468.572 383.441 467.42 382.02 467.42C380.599 467.42 379.447 468.572 379.447 469.993C379.447 471.415 380.599 472.567 382.02 472.567Z" fill="#18A772"/>
<path d="M382.02 442.974C383.441 442.974 384.593 441.821 384.593 440.4C384.593 438.979 383.441 437.827 382.02 437.827C380.599 437.827 379.447 438.979 379.447 440.4C379.447 441.821 380.599 442.974 382.02 442.974Z" fill="#18A772"/>
<path d="M382.02 413.38C383.441 413.38 384.593 412.228 384.593 410.807C384.593 409.386 383.441 408.234 382.02 408.234C380.599 408.234 379.447 409.386 379.447 410.807C379.447 412.228 380.599 413.38 382.02 413.38Z" fill="#18A772"/>
<path d="M382.02 383.787C383.441 383.787 384.593 382.635 384.593 381.213C384.593 379.792 383.441 378.64 382.02 378.64C380.599 378.64 379.447 379.792 379.447 381.213C379.447 382.635 380.599 383.787 382.02 383.787Z" fill="#18A772"/>
<path d="M382.02 354.194C383.441 354.194 384.593 353.041 384.593 351.62C384.593 350.199 383.441 349.047 382.02 349.047C380.599 349.047 379.447 350.199 379.447 351.62C379.447 353.041 380.599 354.194 382.02 354.194Z" fill="#18A772"/>
<path d="M414.187 472.567C415.608 472.567 416.76 471.415 416.76 469.993C416.76 468.572 415.608 467.42 414.187 467.42C412.766 467.42 411.613 468.572 411.613 469.993C411.613 471.415 412.766 472.567 414.187 472.567Z" fill="#18A772"/>
<path d="M414.187 442.974C415.608 442.974 416.76 441.821 416.76 440.4C416.76 438.979 415.608 437.827 414.187 437.827C412.766 437.827 411.613 438.979 411.613 440.4C411.613 441.821 412.766 442.974 414.187 442.974Z" fill="#18A772"/>
<path d="M414.187 413.38C415.608 413.38 416.76 412.228 416.76 410.807C416.76 409.386 415.608 408.234 414.187 408.234C412.766 408.234 411.613 409.386 411.613 410.807C411.613 412.228 412.766 413.38 414.187 413.38Z" fill="#18A772"/>
<path d="M414.187 383.787C415.608 383.787 416.76 382.635 416.76 381.213C416.76 379.792 415.608 378.64 414.187 378.64C412.766 378.64 411.613 379.792 411.613 381.213C411.613 382.635 412.766 383.787 414.187 383.787Z" fill="#18A772"/>
<path d="M414.187 354.194C415.608 354.194 416.76 353.041 416.76 351.62C416.76 350.199 415.608 349.047 414.187 349.047C412.766 349.047 411.613 350.199 411.613 351.62C411.613 353.041 412.766 354.194 414.187 354.194Z" fill="#18A772"/>
<path d="M446.353 472.567C447.775 472.567 448.927 471.415 448.927 469.993C448.927 468.572 447.775 467.42 446.353 467.42C444.932 467.42 443.78 468.572 443.78 469.993C443.78 471.415 444.932 472.567 446.353 472.567Z" fill="#18A772"/>
<path d="M446.353 442.974C447.775 442.974 448.927 441.821 448.927 440.4C448.927 438.979 447.775 437.827 446.353 437.827C444.932 437.827 443.78 438.979 443.78 440.4C443.78 441.821 444.932 442.974 446.353 442.974Z" fill="#18A772"/>
<path d="M446.353 413.38C447.775 413.38 448.927 412.228 448.927 410.807C448.927 409.386 447.775 408.234 446.353 408.234C444.932 408.234 443.78 409.386 443.78 410.807C443.78 412.228 444.932 413.38 446.353 413.38Z" fill="#18A772"/>
<path d="M446.353 383.787C447.775 383.787 448.927 382.635 448.927 381.213C448.927 379.792 447.775 378.64 446.353 378.64C444.932 378.64 443.78 379.792 443.78 381.213C443.78 382.635 444.932 383.787 446.353 383.787Z" fill="#18A772"/>
<path d="M446.353 354.194C447.775 354.194 448.927 353.041 448.927 351.62C448.927 350.199 447.775 349.047 446.353 349.047C444.932 349.047 443.78 350.199 443.78 351.62C443.78 353.041 444.932 354.194 446.353 354.194Z" fill="#18A772"/>
<path d="M478.52 472.567C479.941 472.567 481.093 471.415 481.093 469.993C481.093 468.572 479.941 467.42 478.52 467.42C477.099 467.42 475.947 468.572 475.947 469.993C475.947 471.415 477.099 472.567 478.52 472.567Z" fill="#18A772"/>
<path d="M478.52 442.974C479.941 442.974 481.093 441.821 481.093 440.4C481.093 438.979 479.941 437.827 478.52 437.827C477.099 437.827 475.947 438.979 475.947 440.4C475.947 441.821 477.099 442.974 478.52 442.974Z" fill="#18A772"/>
<path d="M478.52 413.38C479.941 413.38 481.093 412.228 481.093 410.807C481.093 409.386 479.941 408.234 478.52 408.234C477.099 408.234 475.947 409.386 475.947 410.807C475.947 412.228 477.099 413.38 478.52 413.38Z" fill="#18A772"/>
<path d="M478.52 383.787C479.941 383.787 481.093 382.635 481.093 381.213C481.093 379.792 479.941 378.64 478.52 378.64C477.099 378.64 475.947 379.792 475.947 381.213C475.947 382.635 477.099 383.787 478.52 383.787Z" fill="#18A772"/>
<path d="M478.52 354.194C479.941 354.194 481.093 353.041 481.093 351.62C481.093 350.199 479.941 349.047 478.52 349.047C477.099 349.047 475.947 350.199 475.947 351.62C475.947 353.041 477.099 354.194 478.52 354.194Z" fill="#18A772"/>
<path d="M510.687 472.567C512.108 472.567 513.26 471.415 513.26 469.993C513.26 468.572 512.108 467.42 510.687 467.42C509.266 467.42 508.113 468.572 508.113 469.993C508.113 471.415 509.266 472.567 510.687 472.567Z" fill="#18A772"/>
<path d="M510.687 442.974C512.108 442.974 513.26 441.821 513.26 440.4C513.26 438.979 512.108 437.827 510.687 437.827C509.266 437.827 508.113 438.979 508.113 440.4C508.113 441.821 509.266 442.974 510.687 442.974Z" fill="#18A772"/>
<path d="M510.687 413.38C512.108 413.38 513.26 412.228 513.26 410.807C513.26 409.386 512.108 408.234 510.687 408.234C509.266 408.234 508.113 409.386 508.113 410.807C508.113 412.228 509.266 413.38 510.687 413.38Z" fill="#18A772"/>
<path d="M510.687 383.787C512.108 383.787 513.26 382.635 513.26 381.213C513.26 379.792 512.108 378.64 510.687 378.64C509.266 378.64 508.113 379.792 508.113 381.213C508.113 382.635 509.266 383.787 510.687 383.787Z" fill="#18A772"/>
<path d="M510.687 354.194C512.108 354.194 513.26 353.041 513.26 351.62C513.26 350.199 512.108 349.047 510.687 349.047C509.266 349.047 508.113 350.199 508.113 351.62C508.113 353.041 509.266 354.194 510.687 354.194Z" fill="#18A772"/>
<path d="M542.853 472.567C544.274 472.567 545.427 471.415 545.427 469.993C545.427 468.572 544.274 467.42 542.853 467.42C541.432 467.42 540.28 468.572 540.28 469.993C540.28 471.415 541.432 472.567 542.853 472.567Z" fill="#18A772"/>
<path d="M542.853 442.974C544.274 442.974 545.427 441.821 545.427 440.4C545.427 438.979 544.274 437.827 542.853 437.827C541.432 437.827 540.28 438.979 540.28 440.4C540.28 441.821 541.432 442.974 542.853 442.974Z" fill="#18A772"/>
<path d="M542.853 413.38C544.274 413.38 545.427 412.228 545.427 410.807C545.427 409.386 544.274 408.234 542.853 408.234C541.432 408.234 540.28 409.386 540.28 410.807C540.28 412.228 541.432 413.38 542.853 413.38Z" fill="#18A772"/>
<path d="M542.853 383.787C544.274 383.787 545.427 382.635 545.427 381.213C545.427 379.792 544.274 378.64 542.853 378.64C541.432 378.64 540.28 379.792 540.28 381.213C540.28 382.635 541.432 383.787 542.853 383.787Z" fill="#18A772"/>
<path d="M542.853 354.194C544.274 354.194 545.427 353.041 545.427 351.62C545.427 350.199 544.274 349.047 542.853 349.047C541.432 349.047 540.28 350.199 540.28 351.62C540.28 353.041 541.432 354.194 542.853 354.194Z" fill="#18A772"/>
<path d="M575.02 472.567C576.441 472.567 577.593 471.415 577.593 469.993C577.593 468.572 576.441 467.42 575.02 467.42C573.599 467.42 572.447 468.572 572.447 469.993C572.447 471.415 573.599 472.567 575.02 472.567Z" fill="#18A772"/>
<path d="M575.02 442.974C576.441 442.974 577.593 441.821 577.593 440.4C577.593 438.979 576.441 437.827 575.02 437.827C573.599 437.827 572.447 438.979 572.447 440.4C572.447 441.821 573.599 442.974 575.02 442.974Z" fill="#18A772"/>
<path d="M575.02 413.38C576.441 413.38 577.593 412.228 577.593 410.807C577.593 409.386 576.441 408.234 575.02 408.234C573.599 408.234 572.447 409.386 572.447 410.807C572.447 412.228 573.599 413.38 575.02 413.38Z" fill="#18A772"/>
<path d="M575.02 383.787C576.441 383.787 577.593 382.635 577.593 381.213C577.593 379.792 576.441 378.64 575.02 378.64C573.599 378.64 572.447 379.792 572.447 381.213C572.447 382.635 573.599 383.787 575.02 383.787Z" fill="#18A772"/>
<path d="M575.02 354.194C576.441 354.194 577.593 353.041 577.593 351.62C577.593 350.199 576.441 349.047 575.02 349.047C573.599 349.047 572.447 350.199 572.447 351.62C572.447 353.041 573.599 354.194 575.02 354.194Z" fill="#18A772"/>
<path d="M607.187 472.567C608.608 472.567 609.76 471.415 609.76 469.993C609.76 468.572 608.608 467.42 607.187 467.42C605.765 467.42 604.613 468.572 604.613 469.993C604.613 471.415 605.765 472.567 607.187 472.567Z" fill="#18A772"/>
<path d="M607.187 442.974C608.608 442.974 609.76 441.821 609.76 440.4C609.76 438.979 608.608 437.827 607.187 437.827C605.765 437.827 604.613 438.979 604.613 440.4C604.613 441.821 605.765 442.974 607.187 442.974Z" fill="#18A772"/>
<path d="M607.187 413.38C608.608 413.38 609.76 412.228 609.76 410.807C609.76 409.386 608.608 408.234 607.187 408.234C605.765 408.234 604.613 409.386 604.613 410.807C604.613 412.228 605.765 413.38 607.187 413.38Z" fill="#18A772"/>
<path d="M607.187 383.787C608.608 383.787 609.76 382.635 609.76 381.213C609.76 379.792 608.608 378.64 607.187 378.64C605.765 378.64 604.613 379.792 604.613 381.213C604.613 382.635 605.765 383.787 607.187 383.787Z" fill="#18A772"/>
<path d="M607.187 354.194C608.608 354.194 609.76 353.041 609.76 351.62C609.76 350.199 608.608 349.047 607.187 349.047C605.765 349.047 604.613 350.199 604.613 351.62C604.613 353.041 605.765 354.194 607.187 354.194Z" fill="#18A772"/>
</g>
</g>
</svg>
