<svg width="1440" height="793" viewBox="0 0 1440 793" fill="none" xmlns="http://www.w3.org/2000/svg">
<g clip-path="url(#clip0_2_1453)">
<g style="mix-blend-mode:luminosity" opacity="0.05">
<mask id="mask0_2_1453" style="mask-type:luminance" maskUnits="userSpaceOnUse" x="-1065" y="-1415" width="3330" height="3330">
<path d="M932.974 -1414.9L-1064.87 582.941L267.026 1914.84L2264.87 -83.0059L932.974 -1414.9Z" fill="white"/>
</mask>
<g mask="url(#mask0_2_1453)">
<path d="M-785.337 134.592C-739.053 14.0559 -634.5 -81.5075 -510.301 -116.803C-385.935 -152.264 -244.421 -126.625 -137.703 -49.542C-2.01633 48.5187 78.0639 222.497 233.896 282.433C365.92 333.211 510.763 285.929 643.62 244.307C776.809 202.685 929.478 168.889 1051.51 241.311C1133.92 290.091 1191.03 382.491 1282.6 408.463C1375.83 434.768 1473.56 380.993 1533.82 307.406C1594.26 233.985 1627.89 142.417 1674.51 59.1739C1815.19 -193.054 2082.57 -368.531 2372.25 -398.166" stroke="#013440" stroke-width="2.35448" stroke-miterlimit="10"/>
<path d="M-790.498 146.413C-760.863 71.161 -707.588 6.23109 -641.492 -38.8868C-601.369 -66.3572 -556.417 -86.6685 -509.302 -98.1561C-477.836 -105.648 -445.537 -109.311 -413.239 -109.311C-335.656 -108.978 -258.406 -87.0015 -188.149 -48.7095C-171.334 -39.5528 -155.018 -29.5636 -139.368 -18.5755C-85.9257 18.5511 -39.8089 64.6679 4.80962 109.952C62.747 168.889 118.187 226.993 188.278 262.787C203.761 270.612 220.077 277.605 237.225 283.099C299.158 303.077 363.922 302.245 429.684 292.089C502.938 280.768 577.691 257.959 647.948 239.313C657.438 236.815 666.928 234.318 676.584 231.987C746.508 215.006 818.264 203.518 887.356 208.346C942.297 212.009 995.739 226.493 1044.02 258.126C1069.83 274.941 1093.13 296.251 1115.61 318.394C1162.56 364.011 1207.68 413.791 1269.94 431.772C1351.19 455.08 1435.76 416.122 1496.03 357.518C1504.52 349.36 1512.35 340.87 1519.84 332.046C1580.61 259.957 1616.07 170.887 1664.02 90.307C1676 69.9956 1688.99 50.35 1702.48 31.204C1778.06 -74.6816 1878.12 -162.087 1990.83 -224.187C2103.21 -285.953 2227.58 -322.081 2351.94 -329.906" stroke="#013E49" stroke-width="2.35448" stroke-miterlimit="10"/>
<path d="M-795.493 158.4C-764.859 82.815 -709.752 18.7176 -642.158 -24.569C-601.203 -50.8739 -555.585 -69.5204 -508.136 -79.0102C-476.504 -85.3367 -444.205 -87.6675 -412.24 -86.0026C-335.49 -82.1734 -260.404 -56.3679 -190.147 -17.41C-173.165 -8.08677 -156.683 2.06889 -140.7 12.724C-86.0922 49.0182 -38.3105 91.8053 7.30686 133.094C66.4097 186.536 122.183 237.648 191.941 267.782C207.258 274.441 223.407 280.268 240.388 284.597C301.656 300.58 365.919 296.917 431.848 285.596C505.269 272.776 581.52 250.8 651.944 235.317C661.434 233.153 670.923 231.321 680.413 229.49C750.171 216.337 819.097 210.011 885.358 219.001C938.135 225.827 989.246 242.975 1035.7 276.106C1060.5 293.92 1082.98 316.063 1104.79 338.872C1150.07 386.154 1193.86 437.598 1256.79 456.245C1337.2 479.719 1421.11 440.429 1481.38 382.824C1489.71 374.833 1497.7 366.509 1505.19 357.685C1566.29 286.928 1603.58 200.355 1652.86 122.439C1665.18 102.793 1678.5 83.8139 1692.49 65.5003C1769.74 -36.3896 1870.79 -119.134 1982.67 -174.74C2094.05 -230.18 2215.09 -258.317 2331.63 -260.647" stroke="#014752" stroke-width="2.35448" stroke-miterlimit="10"/>
<path d="M-800.321 170.221C-768.522 94.4691 -711.75 30.7046 -642.658 -10.7506C-600.869 -35.8901 -554.586 -52.8718 -506.971 -60.1972C-475.338 -65.1918 -443.04 -66.1907 -411.241 -63.0275C-335.323 -55.7021 -262.735 -26.0674 -191.811 13.5565C-174.83 23.2127 -158.014 33.0355 -141.865 43.5241C-86.4251 78.9858 -36.4791 118.61 10.1372 155.57C70.7384 203.518 126.678 247.47 195.77 271.944C211.087 277.272 227.07 281.933 243.885 285.097C304.486 297.084 368.25 290.591 434.346 277.771C508.099 263.62 585.516 242.143 656.273 229.989C665.929 228.324 675.419 226.826 684.742 225.494C754.167 216.004 820.595 215.172 884.027 227.991C934.472 238.147 983.586 257.626 1028.04 292.755C1051.85 311.568 1073.32 334.377 1094.3 358.018C1137.75 406.798 1180.54 460.241 1243.8 479.22C1323.55 502.695 1406.8 463.404 1466.9 406.632C1475.22 398.64 1483.21 390.649 1490.7 382.158C1552.14 312.733 1591.1 228.491 1641.87 153.405C1654.53 134.426 1668.18 116.112 1682.5 98.4648C1761.41 0.570568 1863.64 -77.3453 1974.52 -126.958C2085.06 -176.238 2202.6 -196.217 2311.15 -192.887" stroke="#02515B" stroke-width="2.35448" stroke-miterlimit="10"/>
<path d="M-805.315 182.208C-772.517 106.123 -713.914 42.8581 -643.323 3.56725C-600.703 -20.4069 -553.587 -35.5572 -505.972 -41.2177C-474.173 -45.0469 -441.875 -44.3809 -410.741 -39.8858C-335.656 -29.0641 -265.232 4.39966 -194.142 44.856C-176.994 54.6787 -160.012 64.6679 -143.364 74.6571C-86.7581 109.286 -34.9806 145.747 12.6346 178.378C74.5677 220.666 130.84 257.626 199.599 276.439C214.75 280.601 230.566 283.765 247.214 286.095C307.316 293.92 370.415 284.763 436.676 270.779C510.597 255.129 589.345 234.651 660.435 225.494C669.925 224.329 679.414 223.163 689.071 222.498C758.329 216.837 821.927 221.166 882.861 238.147C931.142 251.466 978.092 273.442 1020.71 310.403C1043.52 330.214 1064.17 353.856 1084.14 378.163C1125.93 428.275 1167.39 484.048 1231.32 503.361C1310.23 527.335 1392.81 487.378 1452.91 431.605C1461.24 423.946 1469.39 415.789 1476.72 407.464C1538.49 339.371 1579.28 257.626 1631.39 185.204C1644.54 167.057 1658.36 149.243 1672.84 132.428C1753.42 38.5296 1856.81 -34.5581 1966.69 -77.8447C2076.24 -120.798 2190.45 -132.785 2291.01 -123.795" stroke="#025B64" stroke-width="2.35448" stroke-miterlimit="10"/>
<path d="M-810.31 194.195C-776.513 117.777 -716.078 55.0117 -643.99 17.5522C-600.37 -5.09002 -552.755 -18.742 -504.807 -22.4047C-472.675 -24.902 -440.709 -22.9041 -409.743 -16.9106C-335.489 -2.59273 -267.396 34.8668 -195.973 75.9891C-178.659 85.9783 -161.511 95.801 -144.696 105.624C-87.2576 139.421 -33.3159 172.718 15.2983 201.021C78.5633 237.981 135.335 267.782 203.428 280.934C218.579 283.765 234.062 285.929 250.711 286.928C310.146 290.757 372.745 278.77 439.34 263.453C513.593 246.139 593.674 226.66 664.93 220.666C674.42 219.834 683.909 219.334 693.399 219.168C762.491 217.336 823.259 227.159 881.363 247.97C927.48 264.452 972.431 289.092 1013.05 327.717C1034.86 348.528 1054.68 373.002 1073.99 397.975C1113.94 449.586 1154.4 507.356 1218.67 527.002C1296.91 550.976 1378.83 511.019 1438.76 456.079C1447.09 448.42 1455.08 440.429 1462.73 432.437C1524.83 365.676 1567.45 286.429 1620.9 216.671C1634.38 199.189 1648.37 182.208 1663.35 165.892C1745.6 75.9892 1849.82 7.72944 1959.03 -29.2306C2067.75 -66.0242 2178.63 -70.0199 2271.03 -55.2025" stroke="#02646D" stroke-width="2.35448" stroke-miterlimit="10"/>
<path d="M-815.304 206.182C-780.509 129.431 -718.076 67.3317 -644.656 31.87C-600.204 10.3932 -551.922 -1.59389 -503.641 -3.25876C-471.509 -4.42417 -439.544 -1.09436 -408.91 6.23105C-335.489 24.3781 -269.894 65.3338 -197.971 107.289C-180.49 117.444 -163.342 127.267 -146.027 136.923C-87.4241 169.888 -31.9841 200.022 17.962 223.996C82.5589 255.295 139.664 278.104 207.424 285.596C222.408 287.261 237.891 288.093 254.207 288.093C312.977 287.927 375.076 273.109 441.837 256.627C516.424 237.981 597.836 219.168 669.258 216.337C678.915 216.004 688.404 215.838 697.728 216.171C766.487 218.002 824.591 233.153 880.031 257.959C923.817 277.771 966.77 304.742 1005.4 345.365C1026.21 367.174 1045.19 392.48 1063.5 418.119C1101.62 471.229 1141.08 530.997 1205.85 551.142C1283.43 575.449 1364.51 534.993 1424.44 481.051C1432.93 473.559 1440.76 465.734 1448.42 457.743C1510.68 392.48 1555.13 315.397 1610.08 248.469C1623.89 231.654 1638.38 215.505 1653.69 199.855C1737.6 113.948 1842.99 50.5163 1951.21 19.8827C2058.92 -10.5843 2166.47 -6.58863 2250.88 13.8892" stroke="#026E77" stroke-width="2.35448" stroke-miterlimit="10"/>
<path d="M-820.299 217.836C-784.671 140.919 -720.241 79.1523 -645.488 45.6885C-600.204 25.3771 -551.256 15.0549 -502.642 15.3878C-470.344 15.3878 -438.545 20.216 -408.244 29.2063C-335.656 50.8495 -272.225 95.6345 -199.969 138.255C-182.655 148.577 -164.841 158.4 -147.359 167.89C-87.9237 200.022 -30.3192 226.993 20.6257 246.638C86.721 272.444 143.826 288.26 211.087 289.925C225.904 290.424 241.221 290.091 257.536 288.759C315.64 284.597 377.573 266.949 444.168 248.969C518.921 228.824 601.665 210.677 673.587 211.343C683.243 211.343 692.733 211.842 702.056 212.508C770.649 218.169 825.922 238.48 878.532 267.449C919.987 290.257 960.777 320.059 997.57 362.18C1017.38 384.989 1035.36 410.96 1053.01 437.598C1089.64 492.206 1127.6 553.806 1192.69 574.617C1269.61 598.924 1350.02 558.468 1409.79 505.359C1418.12 498.033 1426.11 490.375 1433.93 482.55C1496.7 418.785 1542.81 344.033 1599.09 279.769C1613.24 263.62 1628.06 248.136 1643.54 233.319C1729.11 151.407 1835.67 92.804 1942.72 68.3304C2049.6 44.0233 2153.65 56.177 2230.24 82.1489" stroke="#027880" stroke-width="2.35448" stroke-miterlimit="10"/>
<path d="M-825.294 229.823C-788.667 152.573 -722.571 91.4723 -645.987 59.8399C-599.871 40.6939 -550.091 32.203 -501.477 34.2009C-469.012 35.6992 -437.213 41.8593 -407.245 52.1815C-335.489 77.321 -274.555 125.935 -201.801 169.388C-184.319 179.877 -166.505 189.7 -148.691 198.856C-88.2566 230.322 -28.6543 253.964 23.2896 269.28C90.7167 289.425 148.321 298.415 214.916 294.42C229.567 293.421 244.884 292.089 260.866 289.758C318.471 281.434 379.738 261.122 446.666 241.81C521.585 220.167 605.827 202.852 677.749 206.848C687.239 207.347 696.895 208.346 706.219 209.345C774.645 218.835 827.088 244.307 877.034 277.272C916.325 303.244 954.95 335.542 989.912 379.495C1008.73 403.302 1025.87 430.107 1042.69 457.244C1077.48 513.35 1114.44 576.948 1180.04 598.258C1256.12 622.732 1335.87 581.943 1395.64 529.832C1403.96 522.507 1411.96 515.181 1419.61 507.523C1482.71 445.09 1530.66 372.835 1588.43 311.069C1602.92 295.585 1618.07 280.768 1633.88 266.617C1721.12 188.701 1828.67 135.092 1934.89 116.778C2040.78 98.7979 2141.5 118.943 2210.09 150.575" stroke="#038189" stroke-width="2.35448" stroke-miterlimit="10"/>
<path d="M-830.288 241.81C-792.662 164.227 -724.736 103.626 -646.82 73.9912C-599.871 56.0106 -549.425 49.1846 -500.478 53.1803C-467.847 55.8441 -436.048 63.3361 -406.579 75.1566C-335.656 103.792 -276.886 156.236 -203.965 200.521C-186.317 211.176 -168.17 220.999 -150.19 229.989C-88.5896 260.623 -27.3224 280.934 25.9534 292.255C94.7124 307.073 152.483 308.904 218.912 299.081C233.396 296.917 248.713 294.253 264.363 290.924C321.301 278.603 382.069 255.462 449.163 234.984C524.415 212.009 609.989 195.36 682.078 202.519C691.734 203.518 701.224 204.683 710.547 206.681C778.64 219.834 828.42 250.634 875.536 287.76C912.662 316.895 949.289 351.858 982.254 397.475C1000.07 422.282 1016.38 449.918 1032.37 477.888C1065.33 535.493 1101.29 601.088 1167.22 622.732C1242.64 647.538 1321.89 606.249 1381.32 555.138C1389.65 548.146 1397.8 540.654 1405.46 533.328C1468.89 472.228 1518.51 402.303 1577.78 343.367C1592.59 328.549 1608.08 314.398 1624.23 300.913C1713.13 226.993 1821.68 178.045 1927.07 166.225C2031.95 154.571 2129.51 182.541 2189.95 220" stroke="#038B92" stroke-width="2.35448" stroke-miterlimit="10"/>
<path d="M-835.116 253.63C-796.491 175.715 -726.733 115.613 -647.153 87.9761C-599.371 71.1609 -548.26 65.9998 -499.146 72.1599C-466.515 76.1556 -434.716 84.9793 -405.414 98.2983C-335.323 130.43 -278.884 186.869 -205.63 231.821C-187.816 242.642 -169.669 252.465 -151.355 261.122C-88.9224 290.924 -25.4909 308.072 28.7838 315.064C98.8748 324.221 156.979 319.06 222.907 303.743C237.392 300.247 252.209 296.418 268.025 291.923C324.298 275.607 384.566 249.635 451.827 227.659C527.245 203.185 614.318 187.369 686.573 197.691C696.23 199.023 705.719 200.854 715.043 203.185C782.803 220.333 829.918 256.128 874.37 297.25C909.166 329.382 943.629 367.175 974.762 414.623C991.577 440.429 1007.06 468.898 1022.04 497.534C1053.18 556.637 1087.97 624.064 1154.57 646.373C1229.32 671.18 1307.74 629.724 1367.17 579.612C1375.5 572.619 1383.65 565.46 1391.31 558.135C1455.08 498.366 1506.52 430.939 1567.12 374.667C1582.27 360.515 1598.09 347.03 1614.74 334.377C1705.14 264.286 1815.02 220.333 1919.41 214.839C2023.46 209.345 2117.53 245.473 2169.97 288.593" stroke="#03959B" stroke-width="2.35448" stroke-miterlimit="10"/>
<path d="M-840.111 265.618C-800.487 187.369 -728.731 127.933 -647.985 102.127C-599.205 86.3113 -547.427 83.148 -498.314 90.9729C-465.516 96.134 -433.717 106.623 -404.914 121.44C-335.656 157.068 -281.548 217.17 -207.961 263.12C-190.146 274.275 -171.5 283.931 -153.02 292.422C-89.4219 321.391 -24.1591 335.376 30.9481 338.206C102.537 341.869 160.808 329.882 226.237 308.405C240.555 303.743 255.372 298.582 270.856 293.088C326.629 272.61 386.231 243.974 453.658 220.833C529.243 194.861 617.481 179.877 690.236 193.362C700.059 195.194 709.548 197.358 718.705 200.188C786.299 221.166 830.584 262.121 872.373 307.239C905.004 342.535 937.302 382.824 966.604 432.105C982.42 458.909 996.905 488.044 1011.22 517.679C1040.69 578.113 1074.32 647.705 1141.25 670.347C1215.17 695.32 1292.92 653.532 1352.35 604.419C1360.51 597.593 1368.84 590.6 1376.66 583.441C1440.76 525.004 1494.03 460.074 1555.97 406.465C1571.45 392.98 1587.77 380.327 1604.41 368.34C1696.32 302.411 1807.53 263.12 1910.75 263.786C2013.81 264.619 2104.54 308.738 2148.99 357.519" stroke="#039EA4" stroke-width="2.35448" stroke-miterlimit="10"/>
<path d="M-845.106 277.605C-804.483 199.023 -730.896 140.086 -648.485 116.279C-598.705 101.795 -546.428 100.13 -496.982 109.952C-464.017 116.612 -432.385 128.266 -403.916 144.415C-335.323 183.706 -283.712 247.637 -209.792 293.92C-191.811 305.241 -173.165 314.898 -154.185 323.222C-89.755 351.358 -22.3279 362.18 33.7782 360.681C106.533 358.85 165.303 339.704 230.233 312.733C244.384 306.906 259.201 300.413 274.518 293.754C329.625 269.28 388.728 237.814 456.488 213.341C532.406 186.037 621.976 171.719 694.897 188.368C704.72 190.532 714.21 193.362 723.2 196.692C790.461 221.332 832.249 267.782 871.041 316.896C901.508 355.354 931.642 398.141 958.946 449.086C973.763 476.889 987.415 506.857 1000.9 536.991C1028.7 599.091 1061.17 670.514 1128.6 693.655C1202.02 718.795 1278.93 676.84 1338.2 628.559C1346.53 621.9 1354.52 614.907 1362.51 607.915C1426.94 550.81 1482.05 488.377 1545.31 437.432C1561.13 424.612 1577.78 412.625 1594.76 401.304C1688.32 339.371 1800.54 305.075 1902.93 311.901C2005.15 318.893 2092.39 371.17 2128.85 425.612" stroke="#03A8AD" stroke-width="2.35448" stroke-miterlimit="10"/>
<path d="M-850.267 289.425C-808.479 210.677 -733.227 152.074 -649.484 130.264C-598.872 116.945 -545.929 116.945 -496.149 128.765C-463.018 136.59 -431.552 149.743 -403.25 167.39C-335.49 210.177 -286.209 277.771 -211.956 325.053C-193.809 336.541 -174.83 346.197 -155.85 354.189C-90.2544 381.492 -21.3289 389.151 36.1091 383.324C110.362 375.998 169.132 349.86 233.895 317.062C248.047 309.903 262.531 302.411 277.515 294.42C331.956 265.951 390.726 231.488 458.486 206.015C534.571 177.213 625.639 163.728 698.727 183.539C708.383 186.203 718.039 189.533 727.196 193.362C794.29 221.831 833.415 273.276 869.376 326.552C897.512 368.007 925.482 413.624 950.954 466.401C964.939 495.369 977.592 526.003 990.245 556.97C1016.22 620.568 1047.52 693.822 1115.44 717.463C1188.03 742.769 1264.28 700.481 1323.55 653.199C1331.88 646.54 1339.87 639.88 1348.03 633.054C1412.96 577.447 1469.56 517.179 1534.32 469.065C1550.47 456.911 1567.46 445.59 1584.94 435.101C1680.17 377.164 1793.38 347.529 1894.93 360.848C1996.16 374.167 2080.07 434.435 2108.7 494.37" stroke="#03B2B6" stroke-width="2.35448" stroke-miterlimit="10"/>
<path d="M-855.095 301.246C-812.474 222.331 -735.391 164.227 -649.817 144.249C-598.372 132.095 -544.763 133.76 -494.651 147.578C-461.52 156.735 -430.054 171.219 -402.251 190.365C-335.323 236.649 -288.374 308.238 -213.788 356.186C-195.64 368.007 -176.494 377.497 -157.015 385.322C-90.5872 411.793 -19.4973 416.288 38.9395 406.132C114.525 393.146 173.794 360.182 237.891 321.724C251.876 313.399 266.361 304.575 281.178 295.419C334.953 262.954 393.223 225.661 461.15 198.69C537.401 168.389 629.968 155.736 703.222 178.711C713.045 181.875 722.534 185.371 731.691 189.866C798.452 221.998 834.913 278.77 868.044 336.208C894.016 380.826 919.988 429.108 943.462 483.549C956.448 513.516 968.269 544.982 979.923 576.615C1004.23 641.545 1034.36 716.963 1102.79 741.104C1174.71 766.41 1250.3 724.122 1309.4 677.672C1317.56 671.179 1325.72 664.686 1333.71 658.027C1398.97 603.752 1457.41 545.981 1523.5 500.53C1540.15 489.209 1557.3 478.388 1574.95 468.731C1671.84 414.79 1786.22 389.983 1886.78 409.629C1987.17 429.108 2067.75 497.367 2088.23 563.13" stroke="#04BBBF" stroke-width="2.35448" stroke-miterlimit="10"/>
<path d="M-860.089 313.233C-816.47 233.985 -737.389 176.547 -650.649 158.4C-598.372 147.412 -543.931 150.908 -493.818 166.391C-460.355 176.88 -429.055 192.863 -401.585 213.341C-335.49 263.12 -290.871 338.372 -215.952 387.319C-197.638 399.306 -178.492 408.796 -158.68 416.288C-91.0868 441.927 -18.1656 443.259 41.2701 428.775C118.354 410.295 177.623 370.338 241.221 326.052C255.206 316.396 269.357 306.573 284.008 296.251C337.284 259.624 394.888 219.667 462.981 191.531C539.732 159.732 633.464 147.911 706.885 174.05C716.707 177.546 726.197 181.708 735.354 186.536C801.948 222.498 835.579 284.43 866.046 345.864C889.854 393.646 913.495 444.591 935.305 500.697C947.791 531.83 958.779 564.128 969.601 596.593C992.076 663.022 1021.21 740.438 1089.97 764.912C1161.39 790.384 1235.98 747.763 1295.08 702.312C1303.41 695.986 1311.56 689.493 1319.56 683.166C1384.99 630.39 1445.25 575.117 1512.85 532.163C1529.83 521.508 1547.31 511.352 1565.29 502.362C1663.85 452.416 1779.23 432.604 1878.79 458.243C1978.18 484.048 2055.43 560.299 2067.91 631.722" stroke="#04C5C8" stroke-width="2.35448" stroke-miterlimit="10"/>
<path d="M-865.084 325.22C-820.466 245.639 -739.553 188.701 -651.148 172.551C-598.039 162.729 -542.932 167.89 -492.487 185.371C-459.023 197.191 -427.557 214.34 -400.419 236.482C-335.156 289.758 -292.869 369.006 -217.45 418.452C-198.97 430.606 -179.491 440.096 -159.513 447.421C-91.0868 472.228 -16.1677 470.23 44.4335 451.583C122.682 427.609 182.618 380.66 245.716 330.547C259.534 319.726 273.519 308.405 288.17 297.084C340.78 256.461 397.885 213.674 466.311 184.205C543.228 150.908 638.292 139.753 712.046 169.222C721.868 173.051 731.358 177.879 740.348 183.207C806.777 222.997 837.577 290.091 865.214 355.687C886.857 406.632 908.334 460.074 928.312 518.012C939.3 549.977 949.289 582.941 959.445 616.072C980.089 683.999 1008.06 763.247 1077.48 788.386C1148.07 814.025 1222.16 771.238 1281.1 726.62C1289.26 720.46 1297.58 714.133 1305.57 707.807C1371.33 656.362 1433.27 603.419 1502.36 563.296C1519.67 553.307 1537.49 543.817 1555.8 535.493C1656.03 489.542 1772.57 474.558 1871.29 506.357C1969.85 538.323 2043.44 622.565 2048.1 699.815" stroke="#04CFD2" stroke-width="2.35448" stroke-miterlimit="10"/>
<path d="M-869.912 337.04C-824.295 257.127 -741.551 200.688 -651.814 186.536C-597.873 177.879 -542.1 184.705 -491.488 204.35C-457.857 217.336 -426.558 235.983 -399.753 259.457C-335.157 316.396 -295.2 399.306 -219.615 449.585C-200.968 461.905 -181.489 471.395 -161.011 478.554C-91.4198 502.528 -14.6694 497.367 46.9308 474.392C126.678 444.924 186.78 391.149 249.379 335.209C263.031 323.222 277.016 310.569 291.334 298.249C343.277 253.63 399.883 208.013 468.475 177.047C545.559 142.251 642.121 131.929 716.041 164.893C726.031 169.222 735.52 174.383 744.511 180.376C810.606 223.829 838.909 296.418 863.882 366.009C883.361 420.117 902.507 476.223 920.487 535.826C930.476 568.79 939.633 602.587 948.79 636.384C967.769 705.975 994.574 787.054 1064.17 812.693C1134.09 838.332 1207.34 795.379 1266.45 751.926C1274.6 745.766 1282.93 739.772 1291.09 733.612C1357.18 683.499 1420.95 633.054 1491.54 595.428C1509.18 586.105 1527.5 577.447 1546.14 569.789C1648.03 527.834 1765.57 517.512 1863.47 555.804C1961.03 594.096 2031.29 686.33 2027.96 769.24" stroke="#04D8DB" stroke-width="2.35448" stroke-miterlimit="10"/>
<path d="M-874.907 349.027C-828.29 268.781 -743.715 212.841 -652.48 200.854C-597.706 193.362 -541.267 201.853 -490.489 223.33C-456.692 237.481 -425.392 257.793 -399.087 282.766C-335.323 343.2 -297.863 429.94 -221.779 481.052C-203.299 493.538 -183.154 503.028 -162.676 509.854C-92.0857 533.162 -13.3374 524.671 49.4281 497.534C130.507 462.405 190.942 401.637 253.208 340.037C266.693 326.552 280.512 313.066 294.83 299.414C346.274 250.634 402.214 202.353 470.973 170.221C548.389 134.093 646.117 124.603 720.37 160.564C730.193 165.393 739.682 170.887 748.839 177.38C814.768 224.662 840.407 302.245 862.55 375.998C879.864 433.27 896.846 491.873 912.995 553.307C921.819 587.104 930.31 621.899 938.634 656.529C955.949 727.452 981.588 810.362 1051.68 836.834C1120.94 862.473 1193.69 819.353 1252.46 776.899C1260.79 770.905 1268.94 765.078 1277.1 758.918C1343.53 710.137 1409.13 662.189 1481.05 627.227C1499.2 618.403 1517.68 610.578 1536.49 603.752C1640.04 565.793 1758.75 560.299 1855.48 604.751C1952.21 649.203 2019.13 749.428 2007.81 837.999" stroke="#04E2E4" stroke-width="2.35448" stroke-miterlimit="10"/>
<path d="M-880.068 360.848C-832.453 280.268 -745.879 224.995 -653.313 214.673C-597.54 208.513 -540.435 218.668 -489.49 241.976C-455.526 257.626 -424.393 279.103 -398.255 305.574C-335.323 369.505 -300.028 460.074 -223.777 512.018C-205.13 524.671 -184.985 534.161 -163.842 540.654C-92.2522 562.963 -11.506 551.475 52.0919 520.176C134.503 479.72 195.437 411.793 256.871 344.366C270.19 329.715 284.008 314.898 297.993 300.247C348.771 247.47 404.378 196.193 473.304 162.895C550.886 125.269 650.113 116.612 724.532 155.736C734.355 160.897 743.845 167.057 752.835 174.05C818.597 225.161 841.406 307.905 860.718 385.821C875.702 446.089 890.52 507.523 905.004 570.621C912.829 605.417 920.321 640.879 927.979 676.174C943.462 748.596 968.102 833.504 1038.53 860.309C1107.29 886.114 1179.04 842.661 1237.81 801.206C1245.97 795.379 1254.13 789.552 1262.45 783.891C1329.38 736.609 1396.47 690.825 1469.89 658.693C1488.37 650.535 1507.19 643.376 1526.33 637.216C1631.55 603.253 1751.26 602.753 1847.15 653.365C1942.88 704.144 2006.48 812.36 1987.17 906.592" stroke="#05ECED" stroke-width="2.35448" stroke-miterlimit="10"/>
<path d="M-885.063 372.835C-836.448 291.922 -748.21 237.315 -653.979 228.99C-597.373 223.996 -539.602 235.816 -488.324 261.122C-454.195 277.938 -423.228 300.913 -397.423 328.716C-335.323 396.143 -302.525 490.541 -225.608 543.151C-206.795 555.971 -186.317 565.46 -165.173 571.62C-92.5852 593.264 -10.1743 578.446 54.7556 542.818C138.498 496.701 199.599 421.949 260.7 348.861C274.019 332.878 287.504 317.062 301.489 301.079C351.602 244.307 406.709 190.199 475.801 155.736C553.55 116.612 654.108 108.621 728.861 151.075C738.85 156.735 748.34 163.228 757.163 170.72C822.593 225.494 842.904 313.732 859.386 395.477C872.206 458.909 884.859 522.84 897.346 587.936C904.172 623.731 910.997 659.858 917.657 696.153C931.309 770.073 954.784 856.812 1025.87 884.283C1093.8 910.255 1165.06 866.635 1223.66 826.012C1231.98 820.352 1240.14 814.525 1248.3 809.031C1315.56 763.08 1384.49 719.794 1459.24 690.325C1478.05 682.833 1497.2 676.341 1516.68 670.846C1623.56 640.879 1744.26 645.041 1839.33 702.146C1934.39 759.251 1994.33 875.459 1967.02 975.351" stroke="#05F5F6" stroke-width="2.35448" stroke-miterlimit="10"/>
<path d="M-889.891 384.656C-840.444 303.576 -750.208 249.302 -654.478 242.809C-558.748 236.316 -460.022 278.104 -396.59 351.525C-335.323 422.448 -304.856 520.842 -227.606 574.118C-143.863 631.889 -27.8218 617.071 57.4195 565.46C142.661 513.849 204.094 432.104 264.696 353.19C325.297 274.275 389.894 194.361 478.298 148.244C566.703 102.127 685.907 99.1307 761.492 167.057C826.755 225.661 844.236 319.06 857.888 404.967C874.37 508.355 890.853 612.077 907.335 715.465C919.322 791.05 941.631 879.621 1013.05 907.424C1080.15 933.563 1150.74 889.61 1209.34 849.986C1301.24 787.72 1398.64 729.949 1506.85 703.977C1615.4 678.005 1737.27 686.996 1831.34 750.427C1925.4 813.859 1982.01 938.058 1946.71 1043.61" stroke="#05FFFF" stroke-width="2.35448" stroke-miterlimit="10"/>
<path d="M-856.427 341.535C-802.651 270.779 -714.247 229.656 -625.843 231.821C-537.272 234.151 -450.532 280.268 -391.929 357.851C-336.155 431.605 -305.855 531.497 -229.271 587.437C-146.36 647.705 -29.1537 637.383 57.586 586.937C141.995 537.824 202.429 457.41 263.53 381.326C326.962 302.245 395.388 223.163 485.79 176.048C573.695 130.43 690.902 125.436 766.986 191.531C832.582 248.469 851.395 340.87 865.213 426.277C881.696 528.334 897.678 630.557 914.161 732.613C926.481 807.865 949.622 895.937 1021.05 923.74C1088.47 949.878 1159.56 906.758 1218.5 867.134C1309.07 805.867 1404.63 748.596 1511.68 722.79C1618.73 696.985 1739.27 706.308 1832 769.074C1924.74 831.839 1981.01 954.041 1947.71 1058.59" stroke="#05F8F8" stroke-width="2.35448" stroke-miterlimit="10"/>
<path d="M-823.296 298.415C-765.358 238.147 -678.952 210.011 -597.706 220.999C-516.461 231.987 -441.542 282.599 -387.933 364.178C-337.654 440.762 -307.686 541.986 -231.435 600.589C-149.191 663.188 -30.9851 657.528 57.4195 608.081C141.162 561.298 200.598 482.55 262.032 409.129C328.294 329.882 400.382 251.799 492.949 203.518C580.022 158.067 695.896 151.408 772.147 215.672C837.91 271.112 858.055 362.513 872.206 447.255C888.855 547.813 904.005 648.87 920.654 749.428C933.307 824.68 957.447 912.086 1028.7 940.056C1096.46 966.527 1168.05 924.239 1227.32 884.616C1316.73 824.514 1410.62 767.575 1516.01 742.103C1621.9 716.464 1740.6 726.286 1832.34 788.386C1924.07 850.486 1979.51 970.523 1948.21 1074.08" stroke="#05F1F2" stroke-width="2.35448" stroke-miterlimit="10"/>
<path d="M-789.998 255.129C-728.065 205.183 -643.324 190.033 -569.403 209.678C-495.317 229.157 -432.385 284.098 -383.604 370.171C-338.653 449.419 -309.351 552.641 -233.433 613.575C-152.021 679.004 -32.8163 677.672 57.4196 629.391C140.33 585.106 199.266 507.856 260.866 437.265C330.125 358.018 405.71 280.768 500.274 231.155C586.681 186.037 700.891 177.379 777.309 239.812C843.404 293.587 864.714 384.156 879.199 468.232C896.18 567.458 910.498 667.017 927.147 766.243C939.966 841.329 965.106 928.069 1036.36 956.038C1104.29 982.676 1176.54 941.054 1236.31 901.597C1324.55 842.661 1416.78 786.055 1520.34 760.749C1624.73 735.277 1742.1 745.433 1832.5 806.866C1922.9 868.3 1978.01 986.339 1948.54 1088.73" stroke="#05E9EB" stroke-width="2.35448" stroke-miterlimit="10"/>
<path d="M-756.535 212.009C-690.439 172.551 -607.695 170.387 -540.768 198.69C-474.006 226.826 -422.895 285.929 -379.109 376.331C-339.485 457.91 -310.683 562.963 -234.931 626.727C-154.352 694.654 -34.1482 697.651 57.919 650.535C139.997 608.414 198.267 533.162 260.201 464.902C332.289 385.488 411.537 309.237 508.266 258.459C594.007 213.674 706.552 203.351 783.302 263.786C849.73 315.897 872.373 405.467 887.19 488.876C904.338 586.604 917.823 684.998 934.639 782.726C947.791 857.811 973.763 943.719 1045.02 971.688C1113.28 998.326 1186.03 957.87 1245.97 918.246C1333.21 860.641 1423.61 804.203 1525.5 779.23C1628.56 754.09 1744.6 764.579 1833.5 825.18C1922.4 885.781 1977.18 1001.82 1949.71 1103.21" stroke="#04E2E4" stroke-width="2.35448" stroke-miterlimit="10"/>
<path d="M-723.237 168.722C-652.813 139.587 -572.4 150.409 -512.299 187.535C-453.029 224.162 -413.405 287.427 -374.614 382.491C-340.151 466.567 -312.015 573.618 -236.763 639.88C-156.849 710.137 -35.8132 717.629 57.9189 671.845C139.164 631.889 192.94 554.472 258.869 492.872C338.782 418.286 416.865 337.873 515.591 286.095C600.666 241.643 711.713 229.49 788.463 287.927C855.058 338.539 879.032 427.11 894.182 509.854C911.497 606.083 923.983 703.145 941.132 799.541C954.451 874.46 981.588 959.868 1052.84 987.837C1121.44 1014.81 1194.86 975.018 1255.13 935.394C1341.2 878.955 1429.94 822.849 1530.16 798.209C1631.72 773.236 1746.26 784.224 1834.33 843.993C1922.24 903.928 1976.18 1017.81 1950.71 1118.2" stroke="#04DBDE" stroke-width="2.35448" stroke-miterlimit="10"/>
<path d="M-689.773 125.602C-615.187 106.956 -536.772 130.43 -483.996 176.547C-432.218 221.665 -404.082 289.092 -370.285 388.485C-340.984 474.725 -313.68 583.94 -238.761 652.866C-159.679 725.621 -37.6446 737.441 57.9188 692.823C138.165 655.197 191.275 579.112 257.703 520.675C341.28 447.088 422.192 366.509 523.083 313.566C607.326 269.28 716.874 255.295 793.957 312.067C861.051 361.181 886.024 448.753 901.674 530.998C919.155 625.729 930.809 721.625 948.29 816.356C961.942 891.275 989.912 975.85 1061 1003.99C1129.76 1031.12 1203.68 992.166 1264.62 952.542C1349.52 897.269 1436.43 841.329 1535.32 817.022C1635.71 792.215 1748.59 803.537 1835.33 862.639C1922.07 921.742 1975.51 1033.79 1952.04 1132.85" stroke="#04D4D7" stroke-width="2.35448" stroke-miterlimit="10"/>
<path d="M-656.642 82.482C-578.061 74.1577 -501.477 110.452 -455.693 165.559C-411.241 219.001 -394.592 290.591 -365.957 394.811C-341.649 483.382 -315.012 594.595 -240.425 666.185C-162.177 741.437 -39.3094 757.753 58.2519 714.133C137.666 678.671 190.276 604.085 256.704 548.645C343.943 475.724 427.853 395.477 530.575 341.036C614.151 297.084 722.035 281.434 799.451 336.208C866.878 383.657 893.35 470.396 909 551.975C926.647 645.208 937.635 739.772 955.116 833.171C968.935 907.924 997.904 991.833 1068.99 1019.97C1137.92 1047.27 1212.67 1009.15 1273.61 969.524C1357.35 915.416 1442.42 859.975 1539.82 835.835C1638.71 811.195 1750.26 822.849 1835.83 881.452C1921.41 940.056 1974.18 1049.77 1952.71 1147.83" stroke="#04CDD0" stroke-width="2.35448" stroke-miterlimit="10"/>
<path d="M-623.179 39.3619C-540.435 41.5263 -465.849 90.4734 -427.057 154.571C-389.764 216.171 -384.603 291.922 -361.295 401.138C-341.816 491.873 -316.177 605.084 -242.09 679.504C-164.507 757.087 -40.8077 777.898 58.5849 735.776C137.167 702.479 189.444 629.891 255.705 576.948C346.274 504.693 433.513 424.446 538.233 369.006C621.144 325.386 727.362 307.739 804.945 360.682C872.539 406.632 900.509 492.206 916.325 573.285C934.306 665.186 944.295 758.419 961.942 850.319C976.26 924.905 1006.06 1008.32 1076.98 1036.29C1146.41 1063.76 1221.33 1026.46 1282.93 986.839C1365.51 933.896 1448.92 878.788 1544.48 854.814C1642.04 830.507 1752.09 842.328 1836.33 900.265C1920.57 958.203 1973.02 1065.92 1953.54 1162.98" stroke="#04C5CA" stroke-width="2.35448" stroke-miterlimit="10"/>
<path d="M-589.881 -3.92463C-502.975 8.72837 -430.387 69.9955 -398.588 143.416C-368.454 213.174 -374.78 293.088 -356.966 407.131C-342.482 499.865 -317.676 615.573 -243.922 692.323C-167.171 772.403 -42.6393 797.376 58.7512 756.587C136.168 725.454 193.106 660.191 254.706 604.252C342.445 524.837 439.007 452.582 545.892 395.977C628.136 352.69 732.856 333.211 810.606 384.323C878.532 428.608 907.668 513.35 923.817 593.763C941.964 684.166 951.287 776.066 968.935 866.635C983.419 941.055 1014.22 1023.8 1085.14 1052.1C1154.73 1079.74 1230.32 1043.11 1292.25 1003.82C1373.66 952.043 1455.41 897.269 1549.31 873.627C1645.54 849.32 1753.92 861.807 1837.16 919.078C1920.24 976.183 1972.02 1081.9 1954.54 1177.97" stroke="#04BEC3" stroke-width="2.35448" stroke-miterlimit="10"/>
<path d="M-556.417 -47.0448C-465.349 -24.2361 -394.259 49.8506 -370.119 132.262C-347.143 210.177 -364.791 294.42 -352.471 413.291C-342.648 508.355 -319.007 625.895 -245.753 705.476C-169.669 787.887 -44.3039 817.355 58.7514 777.898C135.169 748.762 192.107 685.83 253.541 632.388C344.609 553.307 444.335 481.551 553.217 423.613C634.796 380.66 737.685 359.35 815.767 408.463C884.027 451.084 914.327 534.993 930.809 614.74C949.123 703.644 957.614 794.38 975.428 883.45C990.245 957.87 1021.88 1039.78 1092.8 1068.08C1162.56 1095.89 1238.81 1060.26 1301.08 1020.64C1381.16 969.857 1461.24 915.416 1553.64 892.274C1648.53 868.3 1755.42 880.953 1837.33 937.558C1919.24 994.164 1970.52 1097.72 1954.87 1192.62" stroke="#04B7BC" stroke-width="2.35448" stroke-miterlimit="10"/>
<path d="M-523.12 -90.3313C-427.89 -57.034 -358.631 29.5392 -341.816 121.273C-326 207.347 -354.802 295.752 -348.309 419.451C-343.148 516.513 -320.672 636.55 -247.751 718.795C-172.332 803.869 -46.4683 837.167 58.7514 799.208C134.17 772.07 191.108 711.469 252.209 660.358C346.607 581.277 449.662 510.187 560.543 451.25C641.289 408.463 742.846 385.488 821.095 432.77C889.521 473.893 921.32 556.637 937.968 635.884C956.448 723.29 964.44 812.86 982.254 900.265C997.404 974.685 1030.04 1055.93 1100.79 1084.07C1170.72 1112.04 1247.63 1077.07 1310.23 1037.78C1389.15 988.17 1467.56 934.062 1558.46 911.087C1651.86 887.279 1757.42 900.265 1838 956.205C1918.58 1012.14 1969.35 1113.53 1955.7 1207.43" stroke="#03B0B6" stroke-width="2.35448" stroke-miterlimit="10"/>
<path d="M-489.823 -133.285C-390.43 -89.4989 -322.836 9.7273 -313.347 110.452C-304.523 204.85 -344.48 297.417 -343.814 425.944C-343.314 525.337 -322.004 647.205 -249.416 732.114C-174.663 819.519 -48.1331 857.145 59.0844 820.851C133.504 795.712 190.276 737.608 251.21 688.661C349.104 610.079 455.157 539.322 568.201 479.22C648.281 436.766 748.173 411.793 826.589 457.244C895.348 496.701 928.312 578.613 945.294 657.195C963.774 743.268 971.266 831.34 989.08 917.413C1004.56 991.5 1038.03 1072.25 1108.78 1100.38C1179.21 1128.52 1256.46 1094.22 1319.56 1055.1C1397.31 1006.65 1474.06 952.875 1563.13 930.067C1655.36 906.425 1759.25 919.744 1838.66 975.184C1918.08 1030.29 1968.19 1129.68 1956.53 1222.58" stroke="#03A9AF" stroke-width="2.35448" stroke-miterlimit="10"/>
<path d="M-456.525 -176.572C-353.137 -122.463 -286.875 -10.5841 -284.877 99.2972C-283.046 202.02 -334.158 298.748 -339.485 431.938C-343.481 533.495 -323.336 657.528 -251.413 745.1C-177.493 835.002 -50.1309 876.791 59.0844 841.828C132.505 818.354 189.444 763.08 250.211 716.297C351.435 638.049 460.651 567.791 575.693 506.357C655.107 464.236 753.334 437.598 832.083 481.051C901.175 518.844 935.471 600.09 952.619 677.839C971.266 762.414 977.925 849.32 995.906 933.896C1011.72 1007.98 1046.02 1087.9 1116.78 1116.37C1187.37 1144.67 1265.28 1111.37 1328.71 1071.91C1405.3 1024.63 1480.22 971.355 1567.79 948.713C1658.69 925.405 1760.91 939.057 1839.33 993.498C1917.58 1048.11 1967.19 1145.33 1957.37 1237.07" stroke="#03A2A8" stroke-width="2.35448" stroke-miterlimit="10"/>
<path d="M-423.228 -219.858C-315.511 -155.428 -251.081 -30.729 -256.575 87.9761C-261.736 199.023 -324.002 299.914 -335.156 437.931C-343.647 541.653 -325.001 667.85 -253.078 758.086C-179.824 850.319 -51.7959 896.103 59.2508 862.972C131.673 841.495 188.778 788.719 249.046 744.101C354.099 666.351 465.978 596.427 583.185 533.828C662.1 491.873 758.496 463.404 837.577 505.192C906.835 541.486 942.63 621.566 959.945 698.816C978.758 781.893 984.751 867.468 1002.73 950.711C1018.88 1024.8 1054.18 1104.05 1124.77 1132.35C1195.52 1160.82 1274.11 1128.19 1337.87 1089.06C1413.12 1042.78 1486.38 989.835 1572.45 967.693C1661.85 944.551 1762.91 958.702 1839.99 1012.48C1917.08 1066.25 1966.02 1161.48 1958.2 1252.22" stroke="#039AA2" stroke-width="2.35448" stroke-miterlimit="10"/>
<path d="M-389.764 -262.978C-277.885 -188.059 -215.119 -50.7075 -227.939 76.9879C-240.092 196.359 -313.347 301.579 -330.661 444.091C-343.481 550.144 -326.166 678.338 -254.91 771.238C-182.321 865.803 -53.7937 915.416 59.4174 884.116C130.674 864.471 187.945 814.525 247.881 771.904C356.43 694.654 471.472 624.896 590.677 561.298C668.759 519.51 763.823 489.376 842.904 529.166C912.496 563.795 949.456 643.043 967.27 719.794C986.249 801.372 991.411 885.781 1009.56 967.526C1025.87 1041.45 1062.17 1120.03 1132.76 1148.33C1203.85 1177.13 1282.76 1145.17 1347.19 1106.04C1421.28 1060.93 1492.87 1008.32 1577.28 986.505C1665.52 963.53 1764.91 978.015 1840.66 1031.12C1916.41 1084.23 1965.03 1177.47 1959.2 1267.2" stroke="#03939B" stroke-width="2.35448" stroke-miterlimit="10"/>
<path d="M-356.467 -306.265C-240.425 -220.857 -179.325 -70.8524 -199.636 65.9998C-218.616 193.862 -303.025 303.244 -326.333 450.418C-343.481 558.801 -327.498 688.993 -256.741 784.39C-184.985 881.452 -55.6251 934.895 59.5838 905.593C129.841 887.612 187.446 840.663 246.715 800.04C358.927 723.456 476.966 654.031 598.169 588.768C675.585 547.313 768.984 515.514 848.398 553.307C918.323 586.271 956.448 664.686 974.595 740.771C993.741 820.851 998.237 903.928 1016.55 984.175C1033.37 1057.93 1070.33 1135.84 1140.75 1164.31C1212.17 1193.12 1291.59 1161.98 1356.35 1123.19C1429.27 1079.24 1499.2 1026.96 1581.77 1005.32C1668.51 982.51 1766.57 997.327 1840.99 1049.77C1915.58 1102.38 1963.53 1193.28 1959.7 1282.02" stroke="#038C94" stroke-width="2.35448" stroke-miterlimit="10"/>
<path d="M-323.003 -349.385C-202.966 -253.655 -143.197 -90.6642 -171.167 54.8453C-197.139 191.032 -292.369 304.575 -322.004 456.411C-343.481 567.125 -328.997 699.149 -258.739 797.377C-187.649 896.769 -57.7896 954.041 59.5836 926.57C128.676 910.421 186.447 866.302 245.549 827.844C361.591 752.092 482.294 682.667 605.66 616.239C682.411 575.117 774.145 541.32 853.726 577.281C923.817 608.747 963.274 686.163 981.754 761.582C1000.9 840.33 1004.9 921.909 1023.21 1000.82C1040.36 1074.58 1078.32 1151.83 1148.74 1180.3C1220.33 1209.26 1300.41 1179.13 1365.51 1140.01C1437.1 1097.05 1505.52 1045.28 1586.6 1023.8C1672.01 1001.32 1768.4 1016.47 1841.83 1068.25C1915.25 1120.03 1962.69 1209.1 1960.7 1296.67" stroke="#03858E" stroke-width="2.35448" stroke-miterlimit="10"/>
<path d="M-289.872 -392.505C-165.673 -286.286 -107.569 -110.643 -142.864 43.857C-175.829 188.368 -281.881 306.407 -317.675 462.738C-343.481 575.783 -330.328 709.804 -260.57 810.862C-189.813 912.585 -59.7873 973.686 59.5837 948.213C127.677 933.729 185.781 892.607 244.384 855.98C364.088 781.227 487.788 711.469 613.152 644.042C689.237 603.253 779.473 567.625 859.22 601.754C929.81 631.722 970.267 708.139 989.08 782.892C1008.39 860.142 1011.89 940.555 1030.04 1017.97C1047.68 1091.56 1086.47 1167.98 1156.73 1196.61C1228.65 1225.91 1309.23 1196.28 1374.66 1157.49C1445.09 1115.7 1511.85 1064.25 1591.26 1043.11C1675.34 1020.64 1770.24 1036.29 1842.32 1087.4C1914.41 1138.51 1961.36 1225.41 1961.53 1311.82" stroke="#027E87" stroke-width="2.35448" stroke-miterlimit="10"/>
<path d="M-256.408 -435.625C-127.88 -319.084 -71.2748 -130.621 -114.228 32.869C-154.019 185.87 -271.059 308.238 -313.18 468.898C-343.314 584.273 -331.66 720.127 -262.235 823.848C-192.311 928.069 -61.4521 992.666 59.9168 969.191C126.845 956.205 185.281 918.412 243.385 883.617C367.085 809.863 493.282 739.939 620.644 671.179C696.063 630.723 784.467 593.264 864.714 625.562C935.471 654.031 977.426 729.283 996.405 803.536C1015.88 879.288 1018.71 958.369 1036.86 1034.45C1054.68 1107.87 1094.47 1183.63 1164.72 1212.26C1236.81 1241.73 1317.89 1212.59 1383.99 1174.14C1453.08 1133.35 1518.01 1082.4 1596.09 1061.59C1678.83 1039.45 1772.23 1055.26 1843.16 1105.88C1914.25 1156.32 1960.53 1241.23 1962.53 1326.47" stroke="#027680" stroke-width="2.35448" stroke-miterlimit="10"/>
<path d="M-223.111 -478.912C-90.5874 -352.049 -35.6468 -150.599 -85.9259 21.8809C-132.709 183.207 -260.57 310.07 -308.852 475.224C-343.314 593.264 -332.992 730.782 -264.233 837.167C-194.975 943.718 -63.6166 1011.81 59.7502 990.668C125.679 979.347 184.282 944.717 242.053 911.919C369.749 839.498 498.443 769.074 627.97 699.149C702.556 658.86 789.628 619.735 869.875 650.036C940.965 676.84 984.085 751.26 1003.56 824.68C1023.04 899.1 1025.21 976.849 1043.52 1051.44C1061.83 1124.69 1102.46 1199.94 1172.38 1228.58C1244.8 1258.05 1326.38 1230.08 1392.81 1191.28C1460.74 1151.66 1524 1101.05 1600.25 1080.4C1681.5 1058.43 1773.4 1074.74 1843.16 1124.52C1912.92 1174.3 1958.7 1257.05 1962.69 1341.29" stroke="#026F7A" stroke-width="2.35448" stroke-miterlimit="10"/>
<path d="M-189.647 -522.032C-52.9613 -384.68 0.314567 -170.578 -57.4564 10.7262C-111.398 180.543 -249.915 311.734 -304.523 481.218C-343.148 601.754 -334.657 741.104 -265.898 850.153C-197.472 959.202 -65.4478 1030.62 60.2497 1011.81C125.18 1002.16 183.95 970.689 241.221 939.723C372.746 868.799 504.104 797.709 635.795 726.62C709.715 686.663 795.123 645.54 875.702 674.176C947.125 699.316 991.411 772.903 1011.22 845.658C1030.87 918.579 1032.37 994.996 1051.01 1068.25C1069.66 1141.5 1111.11 1215.92 1181.21 1244.73C1253.79 1274.36 1336.04 1247.06 1402.8 1208.6C1469.56 1170.14 1531.16 1119.86 1605.75 1099.55C1685.83 1077.74 1776.06 1094.39 1844.82 1143.5C1913.25 1192.62 1958.53 1273.2 1964.53 1356.44" stroke="#026873" stroke-width="2.35448" stroke-miterlimit="10"/>
</g>
</g>
</g>
<defs>
<clipPath id="clip0_2_1453">
<rect width="2825.38" height="1883.58" fill="white" transform="translate(-812.688 -691.824)"/>
</clipPath>
</defs>
</svg>
